<svg xmlns="http://www.w3.org/2000/svg" width="16" height="16" fill="none" viewBox="0 0 16 16"><g clip-path="url(#a)"><path stroke="currentColor" stroke-linecap="round" stroke-linejoin="round" d="M2 10.666h12m-12.668 4h13.333M2 6h12M2 14.665V5.332c0-1.886 0-2.828.62-3.414.62-.586 1.619-.586 3.615-.586h3.53c1.996 0 2.994 0 3.615.586.62.586.62 1.528.62 3.414v9.333m-6.668-1.999h1.333M6.667 5.999 6 3.332M4.332 5.999V3.332m5 7.335V8M8 5.999V3.332m2.664 7.335L11.331 8m1.333 2.667V8"/></g><defs><clipPath id="a"><path fill="#fff" d="M0 0h16v16H0z"/></clipPath></defs></svg>