<svg width="18" height="18" viewBox="0 0 18 18" fill="none" xmlns="http://www.w3.org/2000/svg">
<path d="M14.0545 0.579102V2.26331M3.94922 0.579102V2.26331" stroke="#1A2229" stroke-linecap="round" stroke-linejoin="round"/>
<path d="M7.31476 13.2102L7.31475 10.1342C7.31475 9.97271 7.19961 9.8418 7.05757 9.8418H6.47266M10.3713 13.2102L11.512 10.1358C11.5653 9.99208 11.4519 9.8418 11.2901 9.8418H9.84108" stroke="#1A2229" stroke-linecap="round"/>
<path d="M1 9.20468C1 5.53537 1 3.70072 2.05442 2.56081C3.10883 1.4209 4.80589 1.4209 8.2 1.4209H9.8C13.1941 1.4209 14.8912 1.4209 15.9456 2.56081C17 3.70072 17 5.53537 17 9.20468V9.63711C17 13.3064 17 15.1411 15.9456 16.281C14.8912 17.4209 13.1941 17.4209 9.8 17.4209H8.2C4.80589 17.4209 3.10883 17.4209 2.05442 16.281C1 15.1411 1 13.3064 1 9.63711V9.20468Z" stroke="#1A2229" stroke-linecap="round" stroke-linejoin="round"/>
<path d="M3.94922 5.63184H14.0545" stroke="#1A2229" stroke-linecap="round" stroke-linejoin="round"/>
</svg>
