<svg width="16" height="17" viewBox="0 0 16 17" fill="none" xmlns="http://www.w3.org/2000/svg">
<path d="M12 1.83301V3.16634M4 1.83301V3.16634" stroke="#72737D" stroke-linecap="round" stroke-linejoin="round"/>
<path d="M6.66667 11.8327L6.66666 9.39749C6.66666 9.26965 6.5755 9.16602 6.46305 9.16602H6M9.08644 11.8327L9.98945 9.39879C10.0317 9.28499 9.94189 9.16602 9.81379 9.16602H8.66667" stroke="#72737D" stroke-linecap="round"/>
<path d="M1.66797 8.66216C1.66797 5.75729 1.66797 4.30486 2.50271 3.40243C3.33746 2.5 4.68096 2.5 7.36797 2.5H8.63464C11.3216 2.5 12.6651 2.5 13.4999 3.40243C14.3346 4.30486 14.3346 5.75729 14.3346 8.66216V9.0045C14.3346 11.9094 14.3346 13.3618 13.4999 14.2642C12.6651 15.1667 11.3216 15.1667 8.63464 15.1667H7.36797C4.68096 15.1667 3.33746 15.1667 2.50271 14.2642C1.66797 13.3618 1.66797 11.9094 1.66797 9.0045V8.66216Z" stroke="#72737D" stroke-linecap="round" stroke-linejoin="round"/>
<path d="M4 5.83301H12" stroke="#72737D" stroke-linecap="round" stroke-linejoin="round"/>
</svg>
