<svg width="16" height="16" viewBox="0 0 16 16" fill="none" xmlns="http://www.w3.org/2000/svg">
<g clip-path="url(#clip0_3091_23548)">
<path d="M2.51711 7.96125C1.8851 6.85921 1.57993 5.95933 1.39592 5.04715C1.12378 3.69806 1.74657 2.38021 2.77829 1.53932C3.21433 1.18393 3.71419 1.30535 3.97203 1.76794L4.55415 2.81228C5.01556 3.64005 5.24626 4.05394 5.2005 4.49274C5.15474 4.93153 4.84361 5.28892 4.22135 6.00368L2.51711 7.96125ZM2.51711 7.96125C3.79637 10.1919 5.80392 12.2005 8.03713 13.4813M8.03713 13.4813C9.13916 14.1133 10.039 14.4184 10.9512 14.6024C12.3003 14.8746 13.6182 14.2518 14.459 13.2201C14.8144 12.784 14.693 12.2842 14.2304 12.0263L13.1861 11.4442C12.3583 10.9828 11.9444 10.7521 11.5056 10.7979C11.0668 10.8436 10.7095 11.1548 9.99469 11.777L8.03713 13.4813Z" stroke="#1268B5" stroke-linejoin="round"/>
</g>
<defs>
<clipPath id="clip0_3091_23548">
<rect width="16" height="16" fill="white"/>
</clipPath>
</defs>
</svg>
