<svg xmlns="http://www.w3.org/2000/svg" fill="none" viewBox="0 0 16 16"><g clip-path="url(#a)"><path stroke="currentColor" stroke-linejoin="round" d="M2.517 7.962C1.885 6.86 1.58 5.96 1.396 5.048c-.272-1.349.35-2.667 1.382-3.508.436-.355.936-.234 1.194.229l.582 1.044c.462.828.692 1.242.646 1.68-.045.44-.356.797-.979 1.512L2.517 7.962Zm0 0c1.28 2.23 3.287 4.24 5.52 5.52m0 0c1.102.632 2.002.937 2.914 1.121 1.35.273 2.667-.35 3.508-1.382.355-.436.234-.936-.229-1.194l-1.044-.582c-.828-.461-1.242-.692-1.68-.646-.44.046-.796.357-1.511.979l-1.958 1.704Z"/></g><defs><clipPath id="a"><path fill="#fff" d="M0 0h16v16H0z"/></clipPath></defs></svg>