<svg width="22" height="22" viewBox="0 0 22 22" fill="none" xmlns="http://www.w3.org/2000/svg">
<path d="M6 5.00098C4.77936 5.00464 4.10383 5.03384 3.54873 5.26683C2.7712 5.59318 2.13801 6.19601 1.76811 6.96207C1.46618 7.58735 1.41677 8.38847 1.31796 9.99072L1.16312 12.5014C0.917385 16.4858 0.79452 18.478 1.96369 19.7392C3.13285 21.0005 5.10252 21.0005 9.04187 21.0005H12.9581C16.8975 21.0005 18.8672 21.0005 20.0363 19.7392C21.2055 18.478 21.0826 16.4858 20.8369 12.5014L20.682 9.99072C20.5832 8.38847 20.5338 7.58735 20.2319 6.96207C19.862 6.19601 19.2288 5.59318 18.4513 5.26683C17.8962 5.03384 17.2206 5.00464 16 5.00098" stroke="#141B34" stroke-width="1.5" stroke-linecap="round"/>
<path d="M16 6L15.1142 3.78543C14.732 2.82996 14.3994 1.7461 13.4166 1.25955C12.8924 1 12.2616 1 11 1C9.7384 1 9.1076 1 8.58335 1.25955C7.6006 1.7461 7.26801 2.82996 6.88583 3.78543L6 6" stroke="#141B34" stroke-width="1.5" stroke-linecap="round" stroke-linejoin="round"/>
<path d="M14.5 13C14.5 14.933 12.933 16.5 11 16.5C9.067 16.5 7.5 14.933 7.5 13C7.5 11.067 9.067 9.5 11 9.5C12.933 9.5 14.5 11.067 14.5 13Z" stroke="#141B34" stroke-width="1.5"/>
<path d="M10.9998 5H11.0088" stroke="#141B34" stroke-width="2" stroke-linecap="round" stroke-linejoin="round"/>
</svg>
