<svg width="23" height="22" viewBox="0 0 23 22" fill="none" xmlns="http://www.w3.org/2000/svg">
<path d="M6.5 5C5.27936 5.00366 4.60383 5.03286 4.04873 5.26585C3.2712 5.5922 2.63801 6.19503 2.26811 6.9611C1.96618 7.58638 1.91677 8.3875 1.81796 9.98974L1.66312 12.5004C1.41739 16.4849 1.29452 18.4771 2.46369 19.7383C3.63285 20.9995 5.60252 20.9995 9.54187 20.9995H13.4581C17.3975 20.9995 19.3672 20.9995 20.5363 19.7383C21.7055 18.4771 21.5826 16.4849 21.3369 12.5004L21.182 9.98974C21.0832 8.3875 21.0338 7.58638 20.7319 6.9611C20.362 6.19503 19.7288 5.5922 18.9513 5.26585C18.3962 5.03286 17.7206 5.00366 16.5 5" stroke="white" stroke-width="1.5" stroke-linecap="round"/>
<path d="M16.5 6L15.6142 3.78543C15.232 2.82996 14.8994 1.7461 13.9166 1.25955C13.3924 1 12.7616 1 11.5 1C10.2384 1 9.6076 1 9.08335 1.25955C8.1006 1.7461 7.76801 2.82996 7.38583 3.78543L6.5 6" stroke="white" stroke-width="1.5" stroke-linecap="round" stroke-linejoin="round"/>
<path d="M15 13C15 14.933 13.433 16.5 11.5 16.5C9.567 16.5 8 14.933 8 13C8 11.067 9.567 9.5 11.5 9.5C13.433 9.5 15 11.067 15 13Z" stroke="white" stroke-width="1.5"/>
<path d="M11.4998 5H11.5088" stroke="white" stroke-width="2" stroke-linecap="round" stroke-linejoin="round"/>
</svg>
