<svg xmlns="http://www.w3.org/2000/svg" width="22" height="18" fill="none" viewBox="0 0 22 18"><path stroke="currentColor" stroke-linecap="round" stroke-linejoin="round" d="M1 9c0-3.537 0-5.306 1.053-6.487.168-.189.354-.364.554-.522C3.862 1 5.741 1 9.5 1h3c3.759 0 5.638 0 6.892.99.201.16.387.334.555.523C21 3.693 21 5.463 21 9s0 5.306-1.053 6.487a4.376 4.376 0 0 1-.555.522C18.138 17 16.26 17 12.5 17h-3c-3.759 0-5.638 0-6.893-.99a4.377 4.377 0 0 1-.554-.523C1 14.307 1 12.537 1 9Z"/><path stroke="currentColor" d="M13.551 9a2.5 2.5 0 1 1-5 0 2.5 2.5 0 0 1 5 0Z"/><path stroke="currentColor" stroke-linecap="round" d="M4 9h1m12 0h1"/></svg>