<svg xmlns="http://www.w3.org/2000/svg" width="16" height="16" fill="none" viewBox="0 0 16 16"><g clip-path="url(#a)"><circle cx="8" cy="8.668" r="6" stroke="currentColor" stroke-linecap="round"/><path stroke="currentColor" stroke-linecap="round" stroke-linejoin="round" d="M3.333 12.668 2 14.001m10.667-1.333L14 14.001"/><path stroke="currentColor" stroke-linecap="round" d="m12.667 2.38.397-.199c.564-.281.775-.25 1.223.199.448.448.48.66.199 1.223L14.287 4M3.335 2.38l-.397-.199c-.564-.281-.775-.25-1.223.199-.448.448-.48.66-.199 1.223L1.714 4"/><path stroke="currentColor" stroke-linecap="round" stroke-linejoin="round" d="M8 6.332v2.667l1.333 1.333M8 2.332v-1m-1.332 0h2.667"/></g><defs><clipPath id="a"><path fill="#fff" d="M0 0h16v16H0z"/></clipPath></defs></svg>