<svg width="16" height="17" viewBox="0 0 16 17" fill="none" xmlns="http://www.w3.org/2000/svg">
<path d="M8.00063 15.1663C4.31873 15.1663 1.33398 12.1816 1.33398 8.49967C1.33398 4.81778 4.31875 1.83301 8.00065 1.83301C10.9857 1.83301 13.4844 3.79494 14.334 6.49967H12.6673" stroke="#333333" stroke-linecap="round" stroke-linejoin="round"/>
<path d="M8 5.83301V8.49967L9.33333 9.83301" stroke="#333333" stroke-linecap="round" stroke-linejoin="round"/>
<path d="M14.6367 9.16667C14.6565 8.94724 14.6667 8.72486 14.6667 8.5M10 15.1667C10.2277 15.0917 10.4502 15.0043 10.6667 14.9052M13.8604 11.8333C13.989 11.5856 14.1036 11.3288 14.2034 11.0641M12.1283 13.9862C12.358 13.7961 12.5754 13.5905 12.7792 13.371" stroke="#333333" stroke-linecap="round" stroke-linejoin="round"/>
</svg>
