<svg width="17" height="16" viewBox="0 0 17 16" fill="none" xmlns="http://www.w3.org/2000/svg">
<path d="M13.7148 3.66602L13.3017 10.3494C13.1961 12.057 13.1434 12.9108 12.7153 13.5246C12.5037 13.8281 12.2313 14.0842 11.9153 14.2767C11.2763 14.666 10.4208 14.666 8.71001 14.666C6.99692 14.666 6.14038 14.666 5.50088 14.276C5.18471 14.0831 4.91217 13.8266 4.70063 13.5226C4.27276 12.9077 4.22115 12.0528 4.11792 10.3428L3.71484 3.66602" stroke="white" stroke-linecap="round"/>
<path d="M6.71484 7.82324H10.7148" stroke="white" stroke-linecap="round"/>
<path d="M7.71484 10.4355H9.71484" stroke="white" stroke-linecap="round"/>
<path d="M2.71484 3.66634H14.7148M11.4185 3.66634L10.9634 2.72749C10.6611 2.10385 10.5099 1.79202 10.2492 1.59755C10.1914 1.55441 10.1301 1.51604 10.0661 1.48281C9.77733 1.33301 9.4308 1.33301 8.73774 1.33301C8.02727 1.33301 7.67204 1.33301 7.37851 1.48909C7.31345 1.52368 7.25137 1.5636 7.19291 1.60845C6.92914 1.81081 6.7818 2.13404 6.48712 2.78051L6.08333 3.66634" stroke="white" stroke-linecap="round"/>
</svg>
