<svg width="17" height="16" viewBox="0 0 17 16" fill="none" xmlns="http://www.w3.org/2000/svg">
<path d="M13.5 3.66602L13.0868 10.3494C12.9813 12.057 12.9285 12.9108 12.5005 13.5246C12.2889 13.8281 12.0164 14.0842 11.7005 14.2767C11.0614 14.666 10.206 14.666 8.49516 14.666C6.78208 14.666 5.92554 14.666 5.28604 14.276C4.96987 14.0831 4.69733 13.8266 4.48579 13.5226C4.05792 12.9077 4.0063 12.0528 3.90307 10.3428L3.5 3.66602" stroke="#F7493E" stroke-linecap="round"/>
<path d="M6.5 7.82324H10.5" stroke="#F7493E" stroke-linecap="round"/>
<path d="M7.5 10.4355H9.5" stroke="#F7493E" stroke-linecap="round"/>
<path d="M2.5 3.66634H14.5M11.2037 3.66634L10.7486 2.72749C10.4463 2.10385 10.2951 1.79202 10.0343 1.59755C9.97651 1.55441 9.91527 1.51604 9.85122 1.48281C9.56248 1.33301 9.21595 1.33301 8.52289 1.33301C7.81243 1.33301 7.45719 1.33301 7.16366 1.48909C7.09861 1.52368 7.03653 1.5636 6.97807 1.60845C6.7143 1.81081 6.56696 2.13404 6.27228 2.78051L5.86849 3.66634" stroke="#F7493E" stroke-linecap="round"/>
</svg>
