<svg width="16" height="16" viewBox="0 0 16 16" fill="none" xmlns="http://www.w3.org/2000/svg">
<path d="M13 3.66797L12.5868 10.3514C12.4813 12.0589 12.4285 12.9127 12.0005 13.5265C11.7889 13.83 11.5164 14.0862 11.2005 14.2786C10.5614 14.668 9.70599 14.668 7.99516 14.668C6.28208 14.668 5.42554 14.668 4.78604 14.2779C4.46987 14.0851 4.19733 13.8285 3.98579 13.5245C3.55792 12.9097 3.5063 12.0547 3.40307 10.3447L3 3.66797" stroke="#333333" stroke-linecap="round"/>
<path d="M6 7.82422H10" stroke="#333333" stroke-linecap="round"/>
<path d="M7 10.4375H9" stroke="#333333" stroke-linecap="round"/>
<path d="M2 3.66732H14M10.7037 3.66732L10.2486 2.72847C9.94626 2.10482 9.7951 1.793 9.53435 1.59852C9.47651 1.55538 9.41527 1.51701 9.35122 1.48379C9.06248 1.33398 8.71595 1.33398 8.02289 1.33398C7.31243 1.33398 6.95719 1.33398 6.66366 1.49006C6.59861 1.52466 6.53653 1.56458 6.47807 1.60943C6.2143 1.81178 6.06696 2.13502 5.77228 2.78149L5.36849 3.66732" stroke="#333333" stroke-linecap="round"/>
</svg>
