<svg xmlns="http://www.w3.org/2000/svg" width="16" height="17" fill="none" viewBox="0 0 16 17"><path stroke="currentColor" stroke-linecap="round" stroke-linejoin="round" d="M3.452 10.698c-.838.492-3.036 1.495-1.698 2.75.654.614 1.383 1.053 2.299 1.053h5.225c.916 0 1.644-.439 2.298-1.052 1.34-1.256-.859-2.26-1.697-2.75a6.406 6.406 0 0 0-6.427 0Z"/><path stroke="currentColor" d="M9.333 5.167a2.667 2.667 0 1 1-5.333 0 2.667 2.667 0 0 1 5.333 0Z"/><path stroke="currentColor" stroke-linejoin="round" d="M13.079 3.543c.149-.161.223-.242.303-.29a.621.621 0 0 1 .62-.009c.08.045.157.124.311.28.154.158.23.236.274.318a.659.659 0 0 1-.009.634c-.046.081-.125.157-.283.31l-1.88 1.81c-.3.29-.45.434-.637.507-.188.073-.393.067-.805.057l-.056-.002c-.125-.003-.188-.005-.224-.046-.037-.041-.032-.105-.022-.233l.006-.069c.028-.36.042-.539.112-.7.07-.162.19-.293.433-.555l1.857-2.012Z"/></svg>