<svg xmlns="http://www.w3.org/2000/svg" width="16" height="16" fill="none" viewBox="0 0 16 16"><g clip-path="url(#a)"><path stroke="currentColor" stroke-linejoin="round" d="M9.383 2.591c.497-.538.745-.807 1.01-.964a2.07 2.07 0 0 1 2.068-.031c.268.149.524.41 1.036.933.512.523.768.785.914 1.059.352.661.34 1.463-.03 2.113-.154.27-.417.524-.944 1.031l-6.27 6.038c-.998.962-1.497 1.443-2.121 1.687-.624.243-1.31.225-2.682.19l-.186-.005c-.418-.011-.627-.017-.748-.155-.122-.137-.105-.35-.072-.776l.018-.23c.093-1.198.14-1.797.374-2.335.234-.538.637-.975 1.444-1.849l6.19-6.706Zm-.717.075 4.667 4.667"/><path stroke="currentColor" stroke-linecap="round" stroke-linejoin="round" d="M9.334 14.666h5.333"/></g><path stroke="currentColor" stroke-linejoin="round" d="M9.381 2.589c.497-.538.745-.807 1.01-.964a2.07 2.07 0 0 1 2.068-.031c.268.149.524.41 1.036.933.513.523.769.785.914 1.059.352.661.34 1.463-.03 2.113-.154.27-.417.524-.944 1.031l-6.27 6.038c-.998.962-1.497 1.443-2.12 1.686-.625.244-1.31.226-2.683.19l-.186-.005c-.418-.01-.627-.016-.748-.154-.122-.137-.105-.35-.072-.775l.018-.232c.093-1.197.14-1.796.374-2.334.234-.538.637-.975 1.444-1.849l6.19-6.706Zm-.717.075 4.667 4.667"/><path stroke="currentColor" stroke-linecap="round" stroke-linejoin="round" d="M9.332 14.664h5.333"/><defs><clipPath id="a"><path fill="#fff" d="M0 0h16v16H0z"/></clipPath></defs></svg>