<svg width="17" height="16" viewBox="0 0 17 16" fill="none" xmlns="http://www.w3.org/2000/svg">
<path d="M9.88117 2.58998C10.378 2.05173 10.6264 1.78261 10.8903 1.62563C11.5272 1.24685 12.3114 1.23507 12.9589 1.59456C13.2273 1.74354 13.4833 2.00509 13.9954 2.52818C14.5075 3.05128 14.7635 3.31282 14.9093 3.58696C15.2612 4.24842 15.2497 5.04954 14.8789 5.70014C14.7252 5.96978 14.4618 6.22352 13.9349 6.73101L7.66578 12.7692C6.66728 13.7309 6.16803 14.2118 5.54407 14.4555C4.92011 14.6992 4.23417 14.6813 2.86227 14.6454L2.67562 14.6405C2.25797 14.6296 2.04914 14.6241 1.92776 14.4864C1.80637 14.3486 1.82294 14.1359 1.85608 13.7105L1.87408 13.4794C1.96737 12.282 2.01401 11.6833 2.24784 11.1452C2.48166 10.607 2.88499 10.17 3.69165 9.29601L9.88117 2.58998Z" stroke="#007BFF" stroke-linejoin="round"/>
<path d="M9.16406 2.66602L13.8307 7.33268" stroke="#007BFF" stroke-linejoin="round"/>
<path d="M9.83203 14.666L15.1654 14.666" stroke="#007BFF" stroke-linecap="round" stroke-linejoin="round"/>
</svg>
