<svg width="16" height="17" viewBox="0 0 16 17" fill="none" xmlns="http://www.w3.org/2000/svg">
<path d="M3.45208 10.6982C2.61369 11.1897 0.415507 12.1931 1.75435 13.4486C2.40836 14.062 3.13677 14.5007 4.05255 14.5007H9.27818C10.194 14.5007 10.9224 14.062 11.5764 13.4486C12.9152 12.1931 10.717 11.1896 9.87865 10.6982C7.91266 9.5459 5.41807 9.5459 3.45208 10.6982Z" stroke="#1A2229" stroke-linecap="round" stroke-linejoin="round"/>
<path d="M9.33333 5.16667C9.33333 6.63943 8.13943 7.83333 6.66667 7.83333C5.19391 7.83333 4 6.63943 4 5.16667C4 3.69391 5.19391 2.5 6.66667 2.5C8.13943 2.5 9.33333 3.69391 9.33333 5.16667Z" stroke="#1A2229"/>
<path d="M13.0788 3.54311C13.2278 3.38163 13.3024 3.30089 13.3815 3.2538C13.5726 3.14017 13.8079 3.13663 14.0021 3.24448C14.0826 3.28918 14.1595 3.36764 14.3131 3.52457C14.4667 3.6815 14.5435 3.75996 14.5873 3.8422C14.6928 4.04064 14.6894 4.28097 14.5781 4.47616C14.532 4.55705 14.453 4.63317 14.2949 4.78542L12.4142 6.59687C12.1146 6.88539 11.9649 7.02965 11.7777 7.10276C11.5905 7.17588 11.3847 7.17049 10.9731 7.15973L10.9171 7.15827C10.7918 7.15499 10.7292 7.15335 10.6928 7.11202C10.6564 7.0707 10.6613 7.00688 10.6713 6.87925L10.6767 6.80995C10.7047 6.45072 10.7187 6.27111 10.7888 6.10966C10.859 5.94821 10.9799 5.81711 11.2219 5.55492L13.0788 3.54311Z" stroke="#1A2229" stroke-linejoin="round"/>
</svg>
