<svg width="16" height="16" viewBox="0 0 16 16" fill="none" xmlns="http://www.w3.org/2000/svg">
<g clip-path="url(#clip0_3986_10052)">
<path d="M9.38312 2.59095C9.87991 2.05271 10.1283 1.78358 10.3923 1.6266C11.0291 1.24782 11.8134 1.23605 12.4609 1.59553C12.7292 1.74452 12.9853 2.00606 13.4973 2.52916C14.0094 3.05225 14.2654 3.3138 14.4113 3.58794C14.7632 4.2494 14.7517 5.05051 14.3809 5.70112C14.2272 5.97076 13.9638 6.2245 13.4369 6.73199L7.16774 12.7702C6.16923 13.7319 5.66998 14.2128 5.04602 14.4565C4.42207 14.7002 3.73612 14.6822 2.36423 14.6464L2.17757 14.6415C1.75992 14.6306 1.5511 14.6251 1.42971 14.4873C1.30832 14.3496 1.32489 14.1369 1.35804 13.7114L1.37604 13.4804C1.46932 12.283 1.51597 11.6843 1.74979 11.1461C1.98361 10.608 2.38694 10.171 3.1936 9.29699L9.38312 2.59095Z" stroke="#1268B5" stroke-linejoin="round"/>
<path d="M8.66797 2.66797L13.3346 7.33464" stroke="#1268B5" stroke-linejoin="round"/>
<path d="M9.33398 14.668L14.6673 14.668" stroke="#1268B5" stroke-linecap="round" stroke-linejoin="round"/>
</g>
<path d="M9.38117 2.589C9.87796 2.05075 10.1264 1.78163 10.3903 1.62465C11.0272 1.24587 11.8114 1.23409 12.4589 1.59358C12.7273 1.74256 12.9833 2.00411 13.4954 2.52721C14.0075 3.0503 14.2635 3.31185 14.4093 3.58598C14.7612 4.24744 14.7497 5.04856 14.3789 5.69917C14.2252 5.9688 13.9618 6.22255 13.4349 6.73004L7.16578 12.7682C6.16728 13.7299 5.66803 14.2108 5.04407 14.4545C4.42011 14.6982 3.73417 14.6803 2.36227 14.6444L2.17562 14.6395C1.75797 14.6286 1.54914 14.6232 1.42776 14.4854C1.30637 14.3476 1.32294 14.1349 1.35608 13.7095L1.37408 13.4785C1.46737 12.2811 1.51401 11.6824 1.74784 11.1442C1.98166 10.606 2.38499 10.169 3.19165 9.29503L9.38117 2.589Z" stroke="#1268B5" stroke-linejoin="round"/>
<path d="M8.66406 2.66406L13.3307 7.33073" stroke="#1268B5" stroke-linejoin="round"/>
<path d="M9.33203 14.6641L14.6654 14.6641" stroke="#1268B5" stroke-linecap="round" stroke-linejoin="round"/>
<defs>
<clipPath id="clip0_3986_10052">
<rect width="16" height="16" fill="white"/>
</clipPath>
</defs>
</svg>
