<svg width="17" height="16" viewBox="0 0 17 16" fill="none" xmlns="http://www.w3.org/2000/svg">
<path d="M3.66692 10.1973C2.82854 10.6887 0.63035 11.6921 1.96919 12.9477C2.62321 13.561 3.35161 13.9997 4.26739 13.9997H9.49303C10.4088 13.9997 11.1372 13.561 11.7912 12.9477C13.1301 11.6921 10.9319 10.6887 10.0935 10.1973C8.1275 9.04492 5.63291 9.04492 3.66692 10.1973Z" stroke="white" stroke-linecap="round" stroke-linejoin="round"/>
<path d="M9.54818 4.66667C9.54818 6.13943 8.35427 7.33333 6.88151 7.33333C5.40875 7.33333 4.21484 6.13943 4.21484 4.66667C4.21484 3.19391 5.40875 2 6.88151 2C8.35427 2 9.54818 3.19391 9.54818 4.66667Z" stroke="white"/>
<path d="M13.2936 3.04408C13.4427 2.88261 13.5172 2.80187 13.5964 2.75478C13.7875 2.64114 14.0227 2.63761 14.217 2.74546C14.2975 2.79015 14.3743 2.86862 14.5279 3.02554C14.6815 3.18247 14.7583 3.26094 14.8021 3.34318C14.9077 3.54162 14.9042 3.78195 14.793 3.97713C14.7469 4.05802 14.6678 4.13415 14.5098 4.28639L12.629 6.09785C12.3295 6.38637 12.1797 6.53063 11.9925 6.60374C11.8053 6.67685 11.5995 6.67147 11.188 6.66071L11.132 6.65924C11.0067 6.65597 10.944 6.65433 10.9076 6.613C10.8712 6.57167 10.8762 6.50786 10.8861 6.38023L10.8915 6.31092C10.9195 5.9517 10.9335 5.77209 11.0036 5.61064C11.0738 5.44918 11.1948 5.31809 11.4368 5.05589L13.2936 3.04408Z" stroke="white" stroke-linejoin="round"/>
</svg>
