<svg width="63" height="70" viewBox="0 0 63 70" fill="none" xmlns="http://www.w3.org/2000/svg">
<rect x="0.130859" y="0.697266" width="47.5863" height="59.4829" rx="8" fill="#C4DBEF"/>
<rect x="7.26367" y="12.5938" width="21.4139" height="5.71036" rx="2.85518" fill="#6BA2D2"/>
<rect x="7.26367" y="24.0137" width="32.8346" height="5.71036" rx="2.85518" fill="#6BA2D2"/>
<rect x="7.26367" y="35.4336" width="21.4139" height="5.71036" rx="2.85518" fill="#6BA2D2"/>
<path d="M58.4917 50.4577C58.4917 53.9401 57.3408 57.1535 55.3986 59.7386C54.9588 60.3238 54.4786 60.8769 53.9619 61.3936C51.1632 64.1923 47.2968 65.9233 43.0261 65.9233C34.4847 65.9233 27.5605 58.9991 27.5605 50.4577C27.5605 41.9164 34.4847 34.9922 43.0261 34.9922C51.5675 34.9922 58.4917 41.9164 58.4917 50.4577Z" fill="white" stroke="white" stroke-width="1.5" stroke-linecap="round"/>
<path d="M56.4518 50.6273C56.4518 53.6121 55.4653 56.3665 53.8006 58.5823C53.4237 59.0839 53.012 59.558 52.5692 60.0008C50.1703 62.3997 46.8562 63.8835 43.1956 63.8835C35.8745 63.8835 29.9395 57.9485 29.9395 50.6273C29.9395 43.3061 35.8745 37.3711 43.1956 37.3711C50.5168 37.3711 56.4518 43.3061 56.4518 50.6273Z" fill="white"/>
<path d="M60.8706 68.3022L52.5692 60.0008M52.5692 60.0008C53.012 59.558 53.4237 59.0839 53.8006 58.5823C55.4653 56.3665 56.4518 53.6121 56.4518 50.6273C56.4518 43.3061 50.5168 37.3711 43.1956 37.3711C35.8745 37.3711 29.9395 43.3061 29.9395 50.6273C29.9395 57.9485 35.8745 63.8835 43.1956 63.8835C46.8562 63.8835 50.1703 62.3997 52.5692 60.0008Z" stroke="#1268B5" stroke-width="3" stroke-linecap="round"/>
</svg>
