<svg width="51" height="50" viewBox="0 0 51 50" fill="none" xmlns="http://www.w3.org/2000/svg">
<rect x="0.5" width="50" height="50" rx="8" fill="#EAEAEA"/>
<g clip-path="url(#clip0_4956_49782)">
<path d="M26.228 27.62H22.88C22.88 25.496 23.924 23.624 25.22 22.328C27.092 20.456 29.504 18.764 29.504 16.28C29.504 13.868 27.668 12.572 25.04 12.572C22.412 12.572 20.72 13.724 19.964 16.064L17.12 14.48C18.308 11.132 21.44 9.332 25.076 9.332C27.2 9.332 29.036 9.944 30.548 11.132C32.096 12.32 32.852 14.012 32.852 16.136C32.852 18.152 31.808 19.988 30.512 21.284C28.64 23.156 26.228 24.992 26.228 27.62ZM24.536 35.396C23.24 35.396 22.196 34.352 22.196 33.056C22.196 31.76 23.24 30.716 24.536 30.716C25.868 30.716 26.876 31.76 26.876 33.056C26.876 34.352 25.868 35.396 24.536 35.396Z" fill="#1A2229"/>
</g>
<defs>
<clipPath id="clip0_4956_49782">
<rect width="36" height="36" fill="white" transform="translate(7.5 7)"/>
</clipPath>
</defs>
</svg>
