<svg width="50" height="50" viewBox="0 0 50 50" fill="none" xmlns="http://www.w3.org/2000/svg">
<rect width="50" height="50" rx="8" fill="#EAEAEA"/>
<path d="M38.1611 34C39.285 34 40.179 33.2927 40.9817 32.3037C42.6249 30.2792 39.927 28.6613 38.898 27.8689C37.852 27.0634 36.6841 26.6071 35.5 26.5M34 23.5C36.0711 23.5 37.75 21.8211 37.75 19.75C37.75 17.6789 36.0711 16 34 16" stroke="#1A2229" stroke-width="2" stroke-linecap="round"/>
<path d="M11.8389 34C10.715 34 9.821 33.2927 9.01832 32.3037C7.37513 30.2792 10.073 28.6613 11.102 27.8689C12.148 27.0634 13.3159 26.6071 14.5 26.5M15.25 23.5C13.1789 23.5 11.5 21.8211 11.5 19.75C11.5 17.6789 13.1789 16 15.25 16" stroke="#1A2229" stroke-width="2" stroke-linecap="round"/>
<path d="M19.1257 29.6668C17.593 30.6145 13.5745 32.5496 16.022 34.9711C17.2177 36.154 18.5493 37 20.2234 37H29.7766C31.4507 37 32.7823 36.154 33.978 34.9711C36.4255 32.5496 32.407 30.6145 30.8743 29.6668C27.2802 27.4444 22.7198 27.4444 19.1257 29.6668Z" stroke="#1A2229" stroke-width="2" stroke-linecap="round" stroke-linejoin="round"/>
<path d="M30.25 18.25C30.25 21.1495 27.8995 23.5 25 23.5C22.1005 23.5 19.75 21.1495 19.75 18.25C19.75 15.3505 22.1005 13 25 13C27.8995 13 30.25 15.3505 30.25 18.25Z" stroke="#1A2229" stroke-width="2"/>
</svg>
