<svg xmlns="http://www.w3.org/2000/svg" width="16" height="16" fill="none" viewBox="0 0 16 16"><path stroke="currentColor" stroke-linecap="round" stroke-linejoin="round" d="M8.334 1.334h.182c2.174 0 3.261 0 4.016.532.216.152.408.333.57.537.565.71.565 1.733.565 3.78v1.696c0 1.976 0 2.964-.312 3.753-.503 1.268-1.566 2.268-2.913 2.741-.838.294-1.888.294-3.987.294-1.2 0-1.799 0-2.278-.168a2.755 2.755 0 0 1-1.664-1.566c-.179-.451-.179-1.016-.179-2.144V8"/><path stroke="currentColor" stroke-linecap="round" stroke-linejoin="round" d="M13.667 8a2.222 2.222 0 0 1-2.223 2.222c-.443 0-.967-.078-1.398.038a1.11 1.11 0 0 0-.786.786c-.116.431-.038.955-.038 1.398A2.222 2.222 0 0 1 7 14.667m-.666-9.666c-.328.337-1.2 1.667-1.667 1.667M3.001 5.001c.327.337 1.2 1.667 1.666 1.667m0 0V1.335"/></svg>