<svg width="16" height="17" viewBox="0 0 16 17" fill="none" xmlns="http://www.w3.org/2000/svg">
<path d="M8.33203 1.83301H8.51385C10.688 1.83301 11.7751 1.83301 12.53 2.3649C12.7463 2.51729 12.9383 2.69802 13.1002 2.9016C13.6654 3.61212 13.6654 4.63525 13.6654 6.68149V8.37846C13.6654 10.3539 13.6654 11.3416 13.3527 12.1305C12.8502 13.3987 11.7873 14.3991 10.4398 14.8721C9.60161 15.1663 8.55216 15.1663 6.45324 15.1663C5.25386 15.1663 4.65417 15.1663 4.17522 14.9982C3.40523 14.7279 2.79787 14.1563 2.51067 13.4316C2.33203 12.9808 2.33203 12.4164 2.33203 11.2876V8.49967" stroke="white" stroke-linecap="round" stroke-linejoin="round"/>
<path d="M13.6667 8.5C13.6667 9.7273 12.6717 10.7222 11.4444 10.7222C11.0006 10.7222 10.4773 10.6444 10.0458 10.7601C9.66232 10.8628 9.36282 11.1623 9.26008 11.5458C9.14445 11.9773 9.22222 12.5006 9.22222 12.9444C9.22222 14.1717 8.2273 15.1667 7 15.1667" stroke="white" stroke-linecap="round" stroke-linejoin="round"/>
<path d="M3 5.49935C3.32769 5.83648 4.19985 7.16602 4.66667 7.16602M6.33333 5.49935C6.00565 5.83648 5.13349 7.16602 4.66667 7.16602M4.66667 7.16602L4.66667 1.83268" stroke="white" stroke-linecap="round" stroke-linejoin="round"/>
</svg>
