<svg width="16" height="16" viewBox="0 0 16 16" fill="none" xmlns="http://www.w3.org/2000/svg">
<path d="M8.33398 1.33398H8.5158C10.6899 1.33398 11.777 1.33398 12.5319 1.86587C12.7482 2.01827 12.9403 2.199 13.1022 2.40258C13.6673 3.1131 13.6673 4.13622 13.6673 6.18247V7.87944C13.6673 9.85489 13.6673 10.8426 13.3547 11.6315C12.8521 12.8997 11.7892 13.9001 10.4417 14.3731C9.60357 14.6673 8.55411 14.6673 6.4552 14.6673C5.25582 14.6673 4.65613 14.6673 4.17717 14.4992C3.40718 14.2289 2.79982 13.6573 2.51263 12.9326C2.33398 12.4818 2.33398 11.9174 2.33398 10.7885V8.00065" stroke="#333333" stroke-linecap="round" stroke-linejoin="round"/>
<path d="M13.6667 8C13.6667 9.2273 12.6717 10.2222 11.4444 10.2222C11.0006 10.2222 10.4773 10.1444 10.0458 10.2601C9.66232 10.3628 9.36282 10.6623 9.26008 11.0458C9.14445 11.4773 9.22222 12.0006 9.22222 12.4444C9.22222 13.6717 8.2273 14.6667 7 14.6667" stroke="#333333" stroke-linecap="round" stroke-linejoin="round"/>
<path d="M6.33398 5.0013C6.0063 5.33843 5.13414 6.66797 4.66732 6.66797M3.00065 5.0013C3.32834 5.33843 4.2005 6.66797 4.66732 6.66797M4.66732 6.66797L4.66732 1.33464" stroke="#333333" stroke-linecap="round" stroke-linejoin="round"/>
</svg>
