<svg width="16" height="16" viewBox="0 0 16 16" fill="none" xmlns="http://www.w3.org/2000/svg">
<path d="M6 9.66634H8.66667M6 6.33301H11.3333" stroke="black" stroke-linecap="round"/>
<path d="M2.66797 6.66634C2.66797 4.15218 2.66797 2.89511 3.44902 2.11406C4.23007 1.33301 5.48714 1.33301 8.0013 1.33301H9.0013C11.5155 1.33301 12.7725 1.33301 13.5536 2.11406C14.3346 2.89511 14.3346 4.15218 14.3346 6.66634V9.33301C14.3346 11.8472 14.3346 13.1042 13.5536 13.8853C12.7725 14.6663 11.5155 14.6663 9.0013 14.6663H8.0013C5.48714 14.6663 4.23007 14.6663 3.44902 13.8853C2.66797 13.1042 2.66797 11.8472 2.66797 9.33301V6.66634Z" stroke="black"/>
<path d="M3.33464 4L1.66797 4M3.33464 8L1.66797 8M3.33464 12H1.66797" stroke="black" stroke-linecap="round" stroke-linejoin="round"/>
</svg>
