<svg width="16" height="16" viewBox="0 0 16 16" fill="none" xmlns="http://www.w3.org/2000/svg">
<rect width="16" height="16" rx="2" fill="#1268B5"/>
<path d="M3 8C3 6.59987 3 5.8998 3.27248 5.36502C3.51217 4.89462 3.89462 4.51217 4.36502 4.27248C4.8998 4 5.59987 4 7 4H9C10.4001 4 11.1002 4 11.635 4.27248C12.1054 4.51217 12.4878 4.89462 12.7275 5.36502C13 5.8998 13 6.59987 13 8C13 9.40013 13 10.1002 12.7275 10.635C12.4878 11.1054 12.1054 11.4878 11.635 11.7275C11.1002 12 10.4001 12 9 12H7C5.59987 12 4.8998 12 4.36502 11.7275C3.89462 11.4878 3.51217 11.1054 3.27248 10.635C3 10.1002 3 9.40013 3 8Z" stroke="white" stroke-linejoin="round"/>
</svg>
