<svg width="16" height="17" viewBox="0 0 16 17" fill="none" xmlns="http://www.w3.org/2000/svg">
<path d="M2 5.16699H4" stroke="#333333" stroke-linecap="round" stroke-linejoin="round"/>
<path d="M2 11.834H6" stroke="#333333" stroke-linecap="round" stroke-linejoin="round"/>
<path d="M12 11.834L14 11.834" stroke="#333333" stroke-linecap="round" stroke-linejoin="round"/>
<path d="M10 5.16699L14 5.16699" stroke="#333333" stroke-linecap="round" stroke-linejoin="round"/>
<path d="M4 5.16699C4 4.54574 4 4.23511 4.10149 3.99008C4.23682 3.66338 4.49638 3.40381 4.82309 3.26849C5.06812 3.16699 5.37874 3.16699 6 3.16699C6.62126 3.16699 6.93188 3.16699 7.17691 3.26849C7.50362 3.40381 7.76318 3.66338 7.89851 3.99008C8 4.23511 8 4.54574 8 5.16699C8 5.78825 8 6.09888 7.89851 6.3439C7.76318 6.67061 7.50362 6.93017 7.17691 7.0655C6.93188 7.16699 6.62126 7.16699 6 7.16699C5.37874 7.16699 5.06812 7.16699 4.82309 7.0655C4.49638 6.93017 4.23682 6.67061 4.10149 6.3439C4 6.09888 4 5.78825 4 5.16699Z" stroke="#333333"/>
<path d="M8 11.834C8 11.2127 8 10.9021 8.10149 10.6571C8.23682 10.3304 8.49638 10.0708 8.82309 9.93548C9.06812 9.83398 9.37874 9.83398 10 9.83398C10.6213 9.83398 10.9319 9.83398 11.1769 9.93548C11.5036 10.0708 11.7632 10.3304 11.8985 10.6571C12 10.9021 12 11.2127 12 11.834C12 12.4552 12 12.7659 11.8985 13.0109C11.7632 13.3376 11.5036 13.5972 11.1769 13.7325C10.9319 13.834 10.6213 13.834 10 13.834C9.37874 13.834 9.06812 13.834 8.82309 13.7325C8.49638 13.5972 8.23682 13.3376 8.10149 13.0109C8 12.7659 8 12.4552 8 11.834Z" stroke="#333333"/>
</svg>
