<svg width="16" height="16" viewBox="0 0 16 16" fill="none" xmlns="http://www.w3.org/2000/svg">
<g clip-path="url(#clip0_3182_13210)">
<path d="M1.33203 11.9997C1.33203 10.9727 1.33203 10.4592 1.56318 10.082C1.69253 9.87096 1.86999 9.6935 2.08105 9.56416C2.45826 9.33301 2.97174 9.33301 3.9987 9.33301C5.02566 9.33301 5.53914 9.33301 5.91634 9.56416C6.12741 9.6935 6.30487 9.87096 6.43421 10.082C6.66536 10.4592 6.66536 10.9727 6.66536 11.9997C6.66536 13.0266 6.66536 13.5401 6.43421 13.9173C6.30487 14.1284 6.12741 14.3058 5.91634 14.4352C5.53914 14.6663 5.02566 14.6663 3.9987 14.6663C2.97174 14.6663 2.45826 14.6663 2.08105 14.4352C1.86999 14.3058 1.69253 14.1284 1.56318 13.9173C1.33203 13.5401 1.33203 13.0266 1.33203 11.9997Z" stroke="#333333"/>
<path d="M9.33203 11.9997C9.33203 10.9727 9.33203 10.4592 9.56318 10.082C9.69253 9.87096 9.86999 9.6935 10.0811 9.56416C10.4583 9.33301 10.9717 9.33301 11.9987 9.33301C13.0257 9.33301 13.5391 9.33301 13.9163 9.56416C14.1274 9.6935 14.3049 9.87096 14.4342 10.082C14.6654 10.4592 14.6654 10.9727 14.6654 11.9997C14.6654 13.0266 14.6654 13.5401 14.4342 13.9173C14.3049 14.1284 14.1274 14.3058 13.9163 14.4352C13.5391 14.6663 13.0257 14.6663 11.9987 14.6663C10.9717 14.6663 10.4583 14.6663 10.0811 14.4352C9.86999 14.3058 9.69253 14.1284 9.56318 13.9173C9.33203 13.5401 9.33203 13.0266 9.33203 11.9997Z" stroke="#333333"/>
<path d="M1.33203 3.99967C1.33203 2.97272 1.33203 2.45924 1.56318 2.08203C1.69253 1.87096 1.86999 1.6935 2.08105 1.56416C2.45826 1.33301 2.97174 1.33301 3.9987 1.33301C5.02566 1.33301 5.53914 1.33301 5.91634 1.56416C6.12741 1.6935 6.30487 1.87096 6.43421 2.08203C6.66536 2.45924 6.66536 2.97272 6.66536 3.99967C6.66536 5.02663 6.66536 5.54011 6.43421 5.91732C6.30487 6.12839 6.12741 6.30585 5.91634 6.43519C5.53914 6.66634 5.02566 6.66634 3.9987 6.66634C2.97174 6.66634 2.45826 6.66634 2.08105 6.43519C1.86999 6.30585 1.69253 6.12839 1.56318 5.91732C1.33203 5.54011 1.33203 5.02663 1.33203 3.99967Z" stroke="#333333"/>
<path d="M9.33203 3.99967C9.33203 2.97272 9.33203 2.45924 9.56318 2.08203C9.69253 1.87096 9.86999 1.6935 10.0811 1.56416C10.4583 1.33301 10.9717 1.33301 11.9987 1.33301C13.0257 1.33301 13.5391 1.33301 13.9163 1.56416C14.1274 1.6935 14.3049 1.87096 14.4342 2.08203C14.6654 2.45924 14.6654 2.97272 14.6654 3.99967C14.6654 5.02663 14.6654 5.54011 14.4342 5.91732C14.3049 6.12839 14.1274 6.30585 13.9163 6.43519C13.5391 6.66634 13.0257 6.66634 11.9987 6.66634C10.9717 6.66634 10.4583 6.66634 10.0811 6.43519C9.86999 6.30585 9.69253 6.12839 9.56318 5.91732C9.33203 5.54011 9.33203 5.02663 9.33203 3.99967Z" stroke="#333333"/>
</g>
<defs>
<clipPath id="clip0_3182_13210">
<rect width="16" height="16" fill="white"/>
</clipPath>
</defs>
</svg>
