<svg xmlns="http://www.w3.org/2000/svg" width="18" height="18" fill="none" viewBox="0 0 18 18"><path stroke="currentColor" stroke-linecap="round" d="M11.402 13c-.64.498-1.48.8-2.4.8-.92 0-1.76-.302-2.4-.8"/><path stroke="currentColor" stroke-linejoin="round" d="M1.281 9.97C1 8.134.857 7.215 1.205 6.4c.347-.815 1.118-1.372 2.66-2.487l1.152-.833C6.935 1.693 7.894 1 9 1c1.106 0 2.065.693 3.983 2.08l1.152.833c1.542 1.115 2.313 1.672 2.66 2.486.347.815.206 1.734-.076 3.572l-.24 1.567c-.401 2.605-.601 3.908-1.536 4.685-.934.777-2.3.777-5.032.777H8.09c-2.732 0-4.098 0-5.032-.777-.935-.777-1.135-2.08-1.535-4.685l-.24-1.567Z"/></svg>