<svg width="18" height="17" viewBox="0 0 18 17" fill="none" xmlns="http://www.w3.org/2000/svg">
<path d="M11.4016 12.5C10.7619 12.9979 9.92176 13.3 9.00156 13.3C8.08137 13.3 7.24118 12.9979 6.60156 12.5" stroke="#1A2229" stroke-linecap="round"/>
<path d="M1.28111 9.47076C0.998697 7.63299 0.857489 6.71411 1.20493 5.8995C1.55238 5.08489 2.32322 4.52755 3.86491 3.41285L5.01679 2.58C6.93463 1.19333 7.89355 0.5 9 0.5C10.1064 0.5 11.0654 1.19333 12.9832 2.58L14.1351 3.41285C15.6768 4.52755 16.4476 5.08489 16.7951 5.8995C17.1425 6.71411 17.0013 7.63299 16.7189 9.47076L16.4781 11.0379C16.0777 13.6431 15.8775 14.9458 14.9432 15.7229C14.0089 16.5 12.6429 16.5 9.91105 16.5H8.08895C5.35707 16.5 3.99113 16.5 3.0568 15.7229C2.12247 14.9458 1.9223 13.6431 1.52194 11.0379L1.28111 9.47076Z" stroke="#1A2229" stroke-linejoin="round"/>
</svg>
