<svg width="16" height="16" viewBox="0 0 16 16" fill="none" xmlns="http://www.w3.org/2000/svg">
<circle cx="5" cy="5" r="1" stroke="white" stroke-linecap="round" stroke-linejoin="round"/>
<path d="M1.66602 7.99935C1.66602 5.01379 1.66602 3.52101 2.59351 2.59351C3.52101 1.66602 5.01379 1.66602 7.99935 1.66602C10.9849 1.66602 12.4777 1.66602 13.4052 2.59351C14.3327 3.52101 14.3327 5.01379 14.3327 7.99935C14.3327 10.9849 14.3327 12.4777 13.4052 13.4052C12.4777 14.3327 10.9849 14.3327 7.99935 14.3327C5.01379 14.3327 3.52101 14.3327 2.59351 13.4052C1.66602 12.4777 1.66602 10.9849 1.66602 7.99935Z" stroke="white"/>
<path d="M3.33203 14C6.247 10.5166 9.51474 5.92267 14.3303 9.02824" stroke="white"/>
</svg>
