<svg width="16" height="16" viewBox="0 0 16 16" fill="none" xmlns="http://www.w3.org/2000/svg">
<path d="M10.3709 2.9223C9.97687 2.9223 9.77986 2.9223 9.60038 2.85571C9.57546 2.84646 9.55088 2.83628 9.52672 2.82519C9.35272 2.74537 9.21341 2.60606 8.9348 2.32745C8.29353 1.68619 7.9729 1.36555 7.57838 1.33599C7.52533 1.33201 7.47206 1.33201 7.41902 1.33599C7.0245 1.36555 6.70386 1.68619 6.0626 2.32745C5.78399 2.60606 5.64468 2.74537 5.47068 2.82519C5.44651 2.83628 5.42194 2.84646 5.39701 2.85571C5.21753 2.9223 5.02052 2.9223 4.6265 2.9223H4.55382C3.54855 2.9223 3.04592 2.9223 2.73362 3.2346C2.42133 3.5469 2.42133 4.04953 2.42133 5.0548V5.12748C2.42133 5.5215 2.42133 5.71851 2.35473 5.89799C2.34548 5.92291 2.3353 5.94749 2.32422 5.97165C2.2444 6.14566 2.10509 6.28496 1.82647 6.56358C1.18521 7.20484 0.864578 7.52547 0.835013 7.91999C0.831037 7.97304 0.831037 8.02631 0.835013 8.07935C0.864578 8.47388 1.18521 8.79451 1.82647 9.43577C2.10509 9.71439 2.2444 9.85369 2.32422 10.0277C2.3353 10.0519 2.34548 10.0764 2.35473 10.1014C2.42133 10.2808 2.42133 10.4779 2.42133 10.8719V10.9445C2.42133 11.9498 2.42133 12.4525 2.73362 12.7648C3.04592 13.077 3.54855 13.077 4.55382 13.077H4.6265C5.02052 13.077 5.21753 13.077 5.39701 13.1436C5.42194 13.1529 5.44651 13.1631 5.47068 13.1742C5.64468 13.254 5.78399 13.3933 6.0626 13.6719C6.70386 14.3132 7.0245 14.6338 7.41902 14.6634C7.47206 14.6673 7.52533 14.6673 7.57838 14.6634C7.9729 14.6338 8.29353 14.3132 8.9348 13.6719C9.21341 13.3933 9.35272 13.254 9.52672 13.1742C9.55088 13.1631 9.57546 13.1529 9.60038 13.1436C9.77986 13.077 9.97687 13.077 10.3709 13.077H10.4436C11.4488 13.077 11.9515 13.077 12.2638 12.7648C12.5761 12.4525 12.5761 11.9498 12.5761 10.9446V10.8719C12.5761 10.4779 12.5761 10.2808 12.6427 10.1014C12.6519 10.0764 12.6621 10.0519 12.6732 10.0277C12.753 9.85369 12.8923 9.71439 13.1709 9.43577C13.8122 8.79451 14.1328 8.47388 14.1624 8.07935C14.1664 8.02631 14.1664 7.97304 14.1624 7.91999C14.1328 7.52547 13.8122 7.20484 13.1709 6.56358C12.8923 6.28496 12.753 6.14566 12.6732 5.97165C12.6621 5.94749 12.6519 5.92291 12.6427 5.89799C12.5761 5.71851 12.5761 5.5215 12.5761 5.12748V5.0548C12.5761 4.04953 12.5761 3.5469 12.2638 3.2346C11.9515 2.9223 11.4488 2.9223 10.4436 2.9223H10.3709Z" stroke="#333333"/>
<path d="M7.65885 10.6663V7.99967C7.65885 7.6854 7.65885 7.52827 7.56122 7.43064C7.46359 7.33301 7.30646 7.33301 6.99219 7.33301" stroke="#333333" stroke-linecap="round" stroke-linejoin="round"/>
<path d="M7.49206 5.33301H7.49805" stroke="#333333" stroke-linecap="round" stroke-linejoin="round"/>
</svg>
