<svg width="16" height="16" viewBox="0 0 16 16" fill="none" xmlns="http://www.w3.org/2000/svg">
<path d="M2.59546 13.4065C1.66797 12.479 1.66797 10.9862 1.66797 8.00065C1.66797 5.01509 1.66797 3.52231 2.59546 2.59481C3.52296 1.66732 5.01574 1.66732 8.0013 1.66732C10.9869 1.66732 12.4796 1.66732 13.4071 2.59481C14.3346 3.52231 14.3346 5.01509 14.3346 8.00065C14.3346 10.9862 14.3346 12.479 13.4071 13.4065C12.4796 14.334 10.9869 14.334 8.0013 14.334C5.01574 14.334 3.52296 14.334 2.59546 13.4065Z" stroke="white" stroke-linecap="round" stroke-linejoin="round"/>
<path d="M1.66797 6L14.3346 6" stroke="white"/>
<path d="M10.668 14.334L10.668 1.66732" stroke="white"/>
<path d="M5.33594 14.334L5.33594 1.66732" stroke="white"/>
</svg>
