<svg width="16" height="17" viewBox="0 0 16 17" fill="none" xmlns="http://www.w3.org/2000/svg">
<path d="M9.66536 6.49967C9.66536 7.42015 8.91917 8.16634 7.9987 8.16634C7.07822 8.16634 6.33203 7.42015 6.33203 6.49967C6.33203 5.5792 7.07822 4.83301 7.9987 4.83301C8.91917 4.83301 9.66536 5.5792 9.66536 6.49967Z" stroke="#141B34"/>
<path d="M8.83697 12.1621C8.61211 12.3786 8.31157 12.4997 7.9988 12.4997C7.68602 12.4997 7.38549 12.3786 7.16063 12.1621C5.10157 10.1669 2.34216 7.93803 3.68784 4.70216C4.41543 2.95256 6.16199 1.83301 7.9988 1.83301C9.83561 1.83301 11.5822 2.95256 12.3098 4.70216C13.6537 7.93395 10.9011 10.1737 8.83697 12.1621Z" stroke="#141B34"/>
<path d="M12 13.833C12 14.5694 10.2091 15.1663 8 15.1663C5.79086 15.1663 4 14.5694 4 13.833" stroke="#141B34" stroke-linecap="round"/>
</svg>
