<svg width="17" height="16" viewBox="0 0 17 16" fill="none" xmlns="http://www.w3.org/2000/svg">
<path d="M10.1654 5.99967C10.1654 6.92015 9.41917 7.66634 8.4987 7.66634C7.57822 7.66634 6.83203 6.92015 6.83203 5.99967C6.83203 5.0792 7.57822 4.33301 8.4987 4.33301C9.41917 4.33301 10.1654 5.0792 10.1654 5.99967Z" stroke="#1268B5"/>
<path d="M9.33697 11.6621C9.11211 11.8786 8.81157 11.9997 8.4988 11.9997C8.18602 11.9997 7.88549 11.8786 7.66063 11.6621C5.60157 9.66686 2.84216 7.43803 4.18784 4.20216C4.91543 2.45256 6.66199 1.33301 8.4988 1.33301C10.3356 1.33301 12.0822 2.45256 12.8098 4.20216C14.1537 7.43395 11.4011 9.67374 9.33697 11.6621Z" stroke="#1268B5"/>
<path d="M12.5 13.333C12.5 14.0694 10.7091 14.6663 8.5 14.6663C6.29086 14.6663 4.5 14.0694 4.5 13.333" stroke="#1268B5" stroke-linecap="round"/>
</svg>
