<svg width="16" height="16" viewBox="0 0 16 16" fill="none" xmlns="http://www.w3.org/2000/svg">
<path d="M4.66406 5.66602L6.62541 6.82564C7.76887 7.5017 8.22592 7.5017 9.36939 6.82564L11.3307 5.66602" stroke="#1268B5" stroke-linecap="round" stroke-linejoin="round"/>
<path d="M1.34254 8.98342C1.38613 11.0271 1.40792 12.049 2.162 12.8059C2.91609 13.5629 3.96559 13.5892 6.06458 13.642C7.35824 13.6745 8.63916 13.6745 9.93282 13.642C12.0318 13.5892 13.0813 13.5629 13.8354 12.8059C14.5895 12.049 14.6113 11.0271 14.6549 8.98342C14.6689 8.3263 14.6689 7.67306 14.6549 7.01594C14.6113 4.97225 14.5895 3.9504 13.8354 3.19345C13.0813 2.4365 12.0318 2.41013 9.93282 2.35739C8.63916 2.32488 7.35824 2.32488 6.06458 2.35738C3.96558 2.41012 2.91609 2.43648 2.162 3.19344C1.40791 3.95039 1.38612 4.97224 1.34254 7.01593C1.32853 7.67305 1.32853 8.3263 1.34254 8.98342Z" stroke="#1268B5" stroke-linejoin="round"/>
</svg>
