<svg width="16" height="16" viewBox="0 0 16 16" fill="none" xmlns="http://www.w3.org/2000/svg">
<g clip-path="url(#clip0_4448_43964)">
<path d="M11.75 9.00195C11.9167 9.18971 12 9.35009 12 9.53498C12 9.88405 11.703 10.1458 11.1089 10.6692L9.64776 11.9566C8.85767 12.6528 8.46263 13.0009 8 13.0009C7.53737 13.0009 7.14233 12.6528 6.35224 11.9566L4.89114 10.6692C4.29705 10.1458 4 9.88405 4 9.53498C4 9.35009 4.08333 9.18971 4.25 9.00195" stroke="white" stroke-linecap="round"/>
<path d="M11.2801 5.5C11.76 5.93098 12 6.17696 12 6.49431C12 6.84739 11.703 7.11213 11.1089 7.6416L9.64776 8.94378C8.85767 9.64793 8.46263 10 8 10C7.53737 10 7.14233 9.64793 6.35224 8.94378L4.89114 7.6416C4.29705 7.11213 4 6.84739 4 6.49431C4 6.17696 4.23997 5.93098 4.7199 5.5" stroke="white" stroke-linecap="round"/>
<path d="M6.25 4.75L9.75 4.75M8 3L8 6.5" stroke="white" stroke-linecap="round"/>
</g>
<defs>
<clipPath id="clip0_4448_43964">
<rect width="12" height="12" fill="white" transform="translate(14 2) rotate(90)"/>
</clipPath>
</defs>
</svg>
