<svg width="16" height="16" viewBox="0 0 16 16" fill="none" xmlns="http://www.w3.org/2000/svg">
<rect width="16" height="16" rx="2" fill="#1268B5"/>
<g clip-path="url(#clip0_3787_34411)">
<path d="M11.75 9C11.9167 9.18775 12 9.34814 12 9.53303C12 9.8821 11.703 10.1438 11.1089 10.6673L9.64776 11.9547C8.85767 12.6508 8.46263 12.9989 8 12.9989C7.53737 12.9989 7.14233 12.6508 6.35224 11.9547L4.89114 10.6673C4.29705 10.1438 4 9.8821 4 9.53303C4 9.34814 4.08333 9.18775 4.25 9" stroke="white" stroke-linecap="round"/>
<path d="M11.2801 5.5C11.76 5.93098 12 6.17696 12 6.49431C12 6.84739 11.703 7.11213 11.1089 7.6416L9.64776 8.94378C8.85767 9.64793 8.46263 10 8 10C7.53737 10 7.14233 9.64793 6.35224 8.94378L4.89114 7.6416C4.29705 7.11213 4 6.84739 4 6.49431C4 6.17696 4.23997 5.93098 4.7199 5.5" stroke="white" stroke-linecap="round"/>
<path d="M6.25 4.75L9.75 4.75M8 3L8 6.5" stroke="white" stroke-linecap="round"/>
</g>
<defs>
<clipPath id="clip0_3787_34411">
<rect width="12" height="12" fill="white" transform="translate(14 2) rotate(90)"/>
</clipPath>
</defs>
</svg>
