<svg xmlns="http://www.w3.org/2000/svg" width="16" height="16" fill="none" viewBox="0 0 16 16"><path stroke="currentColor" stroke-linecap="round" stroke-linejoin="round" d="m8.518 9.101.528 1.065c.072.148.264.29.426.317l.957.16c.612.103.756.551.315.993l-.744.75a.66.66 0 0 0-.156.547l.213.929c.168.735-.219 1.019-.864.635l-.897-.536a.644.644 0 0 0-.594 0l-.897.536c-.641.384-1.031.097-.863-.635l.213-.929a.66.66 0 0 0-.156-.547l-.744-.75c-.438-.442-.297-.89.315-.992l.957-.16a.654.654 0 0 0 .422-.318L7.477 9.1c.288-.577.756-.577 1.041 0Z"/><path stroke="currentColor" d="M11.506 1.34H4.494c-.54 0-1.254-.105-1.623.456-.204.31-.204.758-.204 1.655 0 .765 0 1.147.137 1.469.235.55.76.789 1.21 1.049l2.197 1.27c.878.506 1.317.76 1.79.76.471 0 .91-.254 1.788-.76l2.198-1.27c.45-.26.974-.5 1.21-1.05.137-.321.137-.703.137-1.468 0-.897 0-1.345-.204-1.655-.37-.561-1.084-.456-1.624-.456Z"/><path stroke="currentColor" stroke-linecap="round" d="M8 1.332v3.333"/></svg>