<svg width="16" height="16" viewBox="0 0 16 16" fill="none" xmlns="http://www.w3.org/2000/svg">
<g clip-path="url(#clip0_4279_48264)">
<path d="M3.25 8C3.25 5.76083 3.25 4.64124 3.94562 3.94562C4.64124 3.25 5.76083 3.25 8 3.25C10.2392 3.25 11.3588 3.25 12.0544 3.94562C12.75 4.64124 12.75 5.76083 12.75 8C12.75 10.2392 12.75 11.3588 12.0544 12.0544C11.3588 12.75 10.2392 12.75 8 12.75C5.76083 12.75 4.64124 12.75 3.94562 12.0544C3.25 11.3588 3.25 10.2392 3.25 8Z" stroke="white"/>
<g filter="url(#filter0_d_4279_48264)">
<path d="M6 8.875C6 8.875 6.8 9.33126 7.2 10C7.2 10 8.4 7.375 10 6.5" stroke="white" stroke-linecap="round" stroke-linejoin="round"/>
</g>
</g>
<defs>
<filter id="filter0_d_4279_48264" x="1.5" y="6" width="13" height="12.5" filterUnits="userSpaceOnUse" color-interpolation-filters="sRGB">
<feFlood flood-opacity="0" result="BackgroundImageFix"/>
<feColorMatrix in="SourceAlpha" type="matrix" values="0 0 0 0 0 0 0 0 0 0 0 0 0 0 0 0 0 0 127 0" result="hardAlpha"/>
<feOffset dy="4"/>
<feGaussianBlur stdDeviation="2"/>
<feComposite in2="hardAlpha" operator="out"/>
<feColorMatrix type="matrix" values="0 0 0 0 0 0 0 0 0 0 0 0 0 0 0 0 0 0 0.25 0"/>
<feBlend mode="normal" in2="BackgroundImageFix" result="effect1_dropShadow_4279_48264"/>
<feBlend mode="normal" in="SourceGraphic" in2="effect1_dropShadow_4279_48264" result="shape"/>
</filter>
<clipPath id="clip0_4279_48264">
<rect width="12" height="12" fill="white" transform="translate(2 2)"/>
</clipPath>
</defs>
</svg>
