<svg xmlns="http://www.w3.org/2000/svg" width="15" height="16" fill="none" viewBox="0 0 15 16"><path stroke="currentColor" stroke-linecap="round" d="M5.332 9.667h2.667M5.332 6.334h5.333"/><path stroke="currentColor" d="M2 6.667c0-2.514 0-3.77.781-4.552.781-.781 2.038-.781 4.552-.781h1c2.514 0 3.772 0 4.553.781.78.781.78 2.038.78 4.552v2.667c0 2.514 0 3.771-.78 4.552-.781.781-2.038.781-4.553.781h-1c-2.514 0-3.77 0-4.552-.78C2 13.104 2 11.847 2 9.333V6.667Z"/><path stroke="currentColor" stroke-linecap="round" stroke-linejoin="round" d="M2.667 4H1m1.667 4H1m1.667 4H1"/></svg>