<svg width="16" height="16" viewBox="0 0 16 16" fill="none" xmlns="http://www.w3.org/2000/svg">
<path d="M13.6654 11.2864V6.66732C13.6654 4.15316 13.6654 2.89608 12.8843 2.11503C12.1033 1.33398 10.8462 1.33398 8.33203 1.33398H7.66536C5.15121 1.33398 3.89413 1.33398 3.11308 2.11503C2.33203 2.89608 2.33203 4.15316 2.33203 6.66732V13.0007" stroke="#333333" stroke-linecap="round"/>
<path d="M13.6654 11.334H3.9987C3.07822 11.334 2.33203 12.0802 2.33203 13.0007C2.33203 13.9211 3.07822 14.6673 3.9987 14.6673H13.6654" stroke="#333333" stroke-linecap="round"/>
<path d="M13.6667 14.6673C12.7462 14.6673 12 13.9211 12 13.0007C12 12.0802 12.7462 11.334 13.6667 11.334" stroke="#333333" stroke-linecap="round"/>
<path d="M10 4.66797L6 4.66797" stroke="#333333" stroke-linecap="round" stroke-linejoin="round"/>
<path d="M8 7.33398L6 7.33398" stroke="#333333" stroke-linecap="round" stroke-linejoin="round"/>
</svg>
