<svg xmlns="http://www.w3.org/2000/svg" width="20" height="20" fill="none" viewBox="0 0 20 20"><path stroke="currentColor" stroke-linecap="round" stroke-linejoin="round" stroke-width="1.5" d="M12.073 12.916h.008m-4.167 0h.008"/><path stroke="currentColor" stroke-width="1.5" d="M3.555 15.704c.188 1.392 1.34 2.482 2.743 2.547 1.18.054 2.38.082 3.7.082 1.321 0 2.52-.028 3.701-.082 1.403-.065 2.556-1.155 2.743-2.547.122-.908.223-1.84.223-2.787 0-.948-.1-1.88-.223-2.788-.187-1.391-1.34-2.482-2.743-2.546a79.525 79.525 0 0 0-3.7-.083c-1.32 0-2.52.028-3.7.083-1.404.064-2.556 1.155-2.744 2.546-.122.909-.223 1.84-.223 2.788 0 .948.1 1.879.223 2.787Z"/><path stroke="currentColor" stroke-linecap="round" stroke-linejoin="round" stroke-width="1.5" d="M6.25 7.5V5.415a3.75 3.75 0 1 1 7.5 0v2.083"/></svg>