<svg width="17" height="16" viewBox="0 0 17 16" fill="none" xmlns="http://www.w3.org/2000/svg">
<path d="M9.59601 2.58998C10.0928 2.05173 10.3412 1.78261 10.6051 1.62563C11.242 1.24685 12.0263 1.23507 12.6738 1.59456C12.9421 1.74354 13.1982 2.00509 13.7102 2.52818C14.2223 3.05128 14.4783 3.31282 14.6242 3.58696C14.9761 4.24842 14.9646 5.04954 14.5938 5.70014C14.4401 5.96978 14.1766 6.22352 13.6497 6.73101L7.38063 12.7692C6.38213 13.7309 5.88288 14.2118 5.25892 14.4555C4.63496 14.6992 3.94901 14.6813 2.57712 14.6454L2.39046 14.6405C1.97281 14.6296 1.76399 14.6241 1.6426 14.4864C1.52121 14.3486 1.53778 14.1359 1.57093 13.7105L1.58893 13.4794C1.68221 12.282 1.72886 11.6833 1.96268 11.1452C2.1965 10.607 2.59983 10.17 3.40649 9.29601L9.59601 2.58998Z" stroke="white" stroke-linejoin="round"/>
<path d="M8.87891 2.66602L13.5456 7.33268" stroke="white" stroke-linejoin="round"/>
<path d="M9.54688 14.666L14.8802 14.666" stroke="white" stroke-linecap="round" stroke-linejoin="round"/>
<path d="M9.59601 2.589C10.0928 2.05075 10.3412 1.78163 10.6051 1.62465C11.242 1.24587 12.0263 1.23409 12.6738 1.59358C12.9421 1.74256 13.1982 2.00411 13.7102 2.52721C14.2223 3.0503 14.4783 3.31185 14.6242 3.58598C14.9761 4.24744 14.9646 5.04856 14.5938 5.69917C14.4401 5.9688 14.1766 6.22255 13.6497 6.73004L7.38063 12.7682C6.38213 13.7299 5.88288 14.2108 5.25892 14.4545C4.63496 14.6982 3.94901 14.6803 2.57712 14.6444L2.39046 14.6395C1.97281 14.6286 1.76399 14.6232 1.6426 14.4854C1.52121 14.3476 1.53778 14.1349 1.57093 13.7095L1.58893 13.4785C1.68221 12.2811 1.72886 11.6824 1.96268 11.1442C2.1965 10.606 2.59983 10.169 3.40649 9.29503L9.59601 2.589Z" stroke="white" stroke-linejoin="round"/>
<path d="M8.87891 2.66406L13.5456 7.33073" stroke="white" stroke-linejoin="round"/>
<path d="M9.54688 14.6641L14.8802 14.6641" stroke="white" stroke-linecap="round" stroke-linejoin="round"/>
</svg>
