<svg width="16" height="16" viewBox="0 0 16 16" fill="none" xmlns="http://www.w3.org/2000/svg">
<path d="M9.96874 8.26254C9.86775 8.68037 9.39048 8.97562 8.43593 9.56613C7.51316 10.137 7.05177 10.4224 6.67995 10.3077C6.52623 10.2602 6.38617 10.1701 6.27321 10.046C6 9.7459 6 9.16371 6 7.99935C6 6.83498 6 6.2528 6.27321 5.95265C6.38617 5.82855 6.52623 5.73847 6.67995 5.69104C7.05177 5.57631 7.51316 5.86173 8.43593 6.43257C9.39048 7.02307 9.86775 7.31833 9.96874 7.73616C10.0104 7.90862 10.0104 8.09007 9.96874 8.26254Z" stroke="#333333" stroke-linejoin="round"/>
<path d="M1.66602 7.99935C1.66602 5.01379 1.66602 3.52101 2.59351 2.59351C3.52101 1.66602 5.01379 1.66602 7.99935 1.66602C10.9849 1.66602 12.4777 1.66602 13.4052 2.59351C14.3327 3.52101 14.3327 5.01379 14.3327 7.99935C14.3327 10.9849 14.3327 12.4777 13.4052 13.4052C12.4777 14.3327 10.9849 14.3327 7.99935 14.3327C5.01379 14.3327 3.52101 14.3327 2.59351 13.4052C1.66602 12.4777 1.66602 10.9849 1.66602 7.99935Z" stroke="#333333"/>
</svg>
