<svg xmlns="http://www.w3.org/2000/svg" width="60" height="58" fill="none" viewBox="0 0 60 58">
  <path fill="#6BA2D2" d="m49.78 40.8-2 2a2.09 2.09 0 0 0-1.12-.3 2.272 2.272 0 0 0-2.32 2.3 2 2 0 0 0 .3 1.1l-.71.7a.75.75 0 0 0 0 .9.76.76 0 0 0 .91 0l.71-.7a2.33 2.33 0 0 0 2.83-.4 2.28 2.28 0 0 0 .41-2.8l2-2a.75.75 0 0 0 0-.9 1.209 1.209 0 0 0-1.01.1Zm-2.4 4.8a1.14 1.14 0 0 1-.81.3 1.12 1.12 0 0 1-1.11-1.1 1.12 1.12 0 0 1 1.11-1.1c.298-.01.59.097.81.3a1 1 0 0 1 0 1.6Zm-23.39-35h-5.06a.65.65 0 0 0-.61.6v5a.65.65 0 0 0 .61.6h5.06a.65.65 0 0 0 .6-.6v-5a.65.65 0 0 0-.6-.6Zm-.71 5h-3.85v-3.8h3.85v3.8Zm4.45.6H42.3a.65.65 0 0 0 .6-.6.65.65 0 0 0-.6-.6H27.73a.65.65 0 0 0-.61.6.65.65 0 0 0 .61.6Zm0-3.1h7.59a.65.65 0 0 0 .6-.6.65.65 0 0 0-.6-.6h-7.59a.65.65 0 0 0-.61.6.65.65 0 0 0 .61.6Zm0 11.8H42.3a.65.65 0 0 0 .6-.6.65.65 0 0 0-.6-.6H27.73a.65.65 0 0 0-.61.6.579.579 0 0 0 .61.6Zm0-3.1h7.59a.65.65 0 0 0 .6-.6.65.65 0 0 0-.6-.6h-7.59a.65.65 0 0 0-.61.6.65.65 0 0 0 .61.6Zm-4.86-.4-2.73 2.7-.81-.9a.76.76 0 0 0-.91 0 .75.75 0 0 0 0 .9l1.32 1.3a.76.76 0 0 0 .4.2.56.56 0 0 0 .41-.2l3.13-3.1a.75.75 0 0 0 0-.9c-.1-.2-.5-.2-.81 0Zm15.58 11a.65.65 0 0 0-.61-.6H27.73a.65.65 0 0 0-.61.6.65.65 0 0 0 .61.6h10.11c.41.1.61-.2.61-.6Zm-10.72-2.5h6.37a.65.65 0 0 0 .61-.6.65.65 0 0 0-.61-.6h-6.37a.65.65 0 0 0-.61.6.579.579 0 0 0 .61.6Zm-4.86-.4-2.63 2.7-.91-.9a.76.76 0 0 0-.91 0 .75.75 0 0 0 0 .9l1.32 1.3a.76.76 0 0 0 .4.2.56.56 0 0 0 .41-.2l3.13-3.1a.75.75 0 0 0 0-.9c-.1-.2-.5-.2-.81 0ZM3.75 44.9A3.13 3.13 0 0 0 .62 48a3.13 3.13 0 0 0 3.13 3.1A3.14 3.14 0 0 0 6.89 48a3.2 3.2 0 0 0-3.14-3.1Zm0 5A1.91 1.91 0 0 1 1.83 48a1.91 1.91 0 0 1 1.92-1.9A1.85 1.85 0 0 1 5.68 48a2 2 0 0 1-1.93 1.9ZM2.129 8.1a.91.91 0 0 1 .92.9.91.91 0 0 1-.92.9.9.9 0 1 1 0-1.8ZM53.318 15a.9.9 0 1 1 0 1.8.901.901 0 0 1-.643-1.54.9.9 0 0 1 .643-.26Zm3.24 13.7a.9.9 0 1 1 0 1.8.899.899 0 1 1 0-1.8ZM48.969 0a.9.9 0 1 1 0 1.8.9.9 0 1 1 0-1.8ZM5.27 26.9a.9.9 0 1 1 0 1.8.897.897 0 0 1-.91-.9.9.9 0 0 1 .91-.9Zm1.92 27.5a.9.9 0 1 1 0 1.8.897.897 0 0 1-.91-.9.9.9 0 0 1 .91-.9Z"/>
  <path fill="#6BA2D2" d="M55.649 36.2a12.88 12.88 0 0 0-6.48-3.5V5.6a.65.65 0 0 0-.6-.6h-3.14V1.2a.65.65 0 0 0-.61-.6h-36a.65.65 0 0 0-.61.6v49.4a.65.65 0 0 0 .61.6h3.85v3.1a.65.65 0 0 0 .6.6h25.9a12.75 12.75 0 0 0 16.49-1.1 12.289 12.289 0 0 0-.01-17.6Zm-43.1-30.6V50h-3.17V1.8h34.8v3.1h-31.06a.68.68 0 0 0-.57.7Zm1.32 48.1V6.2h34.19v26.3a12.5 12.5 0 0 0-10.11 3.6h-.11v.1a14.158 14.158 0 0 0-2.73 4 12.81 12.81 0 0 0-.91 4.8 12.27 12.27 0 0 0 3.64 8.8h-24l.03-.1Zm42.59-8.1h1.62a16.21 16.21 0 0 1-.61 3.1l-.81-.3a.64.64 0 0 0-.81.3.63.63 0 0 0 .3.8l.81.3a11.762 11.762 0 0 1-1.82 2.6l-1.11-1.1a.76.76 0 0 0-.91 0 .75.75 0 0 0 0 .9l1.11 1.1a10.728 10.728 0 0 1-2.63 1.7l-.3-.8a.56.56 0 0 0-.81-.3.55.55 0 0 0-.3.8l.3.8a10.86 10.86 0 0 1-3.14.6v-1.6a.65.65 0 0 0-.6-.6.65.65 0 0 0-.61.6v1.7a15.868 15.868 0 0 1-3.14-.6l.31-.8a.62.62 0 0 0-.31-.8.65.65 0 0 0-.81.3l-.3.8a12.228 12.228 0 0 1-2.63-1.8l1.12-1.1a.72.72 0 0 0 0-.9.76.76 0 0 0-.91 0l-1.09 1.1a10.379 10.379 0 0 1-1.72-2.6l.81-.3a.55.55 0 0 0 .3-.8.56.56 0 0 0-.81-.3l-.81.3a10.659 10.659 0 0 1-.6-3.1h1.62a.65.65 0 0 0 .6-.6.65.65 0 0 0-.6-.6h-1.62c.094-1.051.295-2.09.6-3.1l.81.3a.64.64 0 0 0 .81-.3.63.63 0 0 0-.3-.8l-.81-.3a12.1 12.1 0 0 1 1.82-2.6l1.11 1.1a.76.76 0 0 0 .91 0 .72.72 0 0 0 0-.9l-1.12-1.1a10.73 10.73 0 0 1 2.63-1.7l.31.8a.55.55 0 0 0 .8.3.55.55 0 0 0 .31-.8l-.31-.8a11.003 11.003 0 0 1 3.14-.6v1.6a.65.65 0 0 0 .61.6.65.65 0 0 0 .6-.6v-1.6a15.76 15.76 0 0 1 3.14.6l-.3.8a.63.63 0 0 0 .3.8.64.64 0 0 0 .81-.3l.3-.8c.962.48 1.856 1.085 2.66 1.8l-1.11 1.1a.75.75 0 0 0 0 .9.76.76 0 0 0 .91 0l1.11-1.1c.7.775 1.28 1.651 1.72 2.6l-.81.3a.55.55 0 0 0-.3.8.56.56 0 0 0 .81.3l.81-.3c.356.997.562 2.042.61 3.1h-1.62a.65.65 0 0 0-.61.6.65.65 0 0 0 .56.5Zm-.909-33.8a3.8 3.8 0 0 0 3.83-3.7 3.89 3.89 0 0 0-3.84-3.8 3.82 3.82 0 0 0-3.85 3.8 3.738 3.738 0 0 0 3.86 3.7Zm0-6.2a2.49 2.49 0 0 1 2.53 2.5 2.492 2.492 0 0 1-2.53 2.5 2.49 2.49 0 0 1-2.53-2.5 2.49 2.49 0 0 1 2.53-2.5Z"/>
</svg>
