<svg xmlns="http://www.w3.org/2000/svg" width="16" height="16" fill="none" viewBox="0 0 16 16"><g clip-path="url(#a)"><path stroke="currentColor" stroke-linecap="round" stroke-linejoin="round" d="M4.664 14.668V8.185c0-.721 0-1.082.163-1.384.163-.303.463-.498 1.062-.888l1.387-.903c.35-.228.526-.342.721-.342.196 0 .371.114.721.342l1.388.903c.6.39.899.585 1.062.888.163.302.163.663.163 1.384v6.483M8 8.668h.006m5.326 5.999v-3.225c0-1.528-.63-1.651-2-2.108m-8.668 5.333v-3.225c0-1.528.63-1.651 2-2.108m-3.332 5.334h13.333M8 4.667V3.322m0 0V1.981c0-.316 0-.474.098-.573.306-.308 1.569.421 2.049.717.405.25.52.748.52 1.197H8Z"/><path stroke="currentColor" stroke-linecap="round" stroke-linejoin="round" d="M6.664 14.667v-2c0-.628 0-.942.195-1.138.196-.195.51-.195 1.138-.195.629 0 .943 0 1.138.195.196.196.196.51.196 1.138v2"/></g><defs><clipPath id="a"><path fill="#fff" d="M0 0h16v16H0z"/></clipPath></defs></svg>