<svg width="17" height="16" viewBox="0 0 17 16" fill="none" xmlns="http://www.w3.org/2000/svg">
<path d="M14.713 4.76126L14.3839 4.19019C14.135 3.7583 14.0106 3.54236 13.7989 3.45625C13.5872 3.37014 13.3477 3.43808 12.8688 3.57398L12.0553 3.80311C11.7496 3.87362 11.4288 3.83362 11.1497 3.69019L10.9251 3.5606C10.6857 3.40728 10.5016 3.18122 10.3996 2.91549L10.177 2.25056C10.0306 1.81055 9.95743 1.59054 9.78319 1.46471C9.60893 1.33887 9.37748 1.33887 8.91458 1.33887H8.17139C7.70849 1.33887 7.47704 1.33887 7.30279 1.46471C7.12854 1.59054 7.05534 1.81055 6.90896 2.25056L6.68632 2.91549C6.5844 3.18122 6.40027 3.40728 6.16088 3.5606L5.93629 3.69019C5.65713 3.83362 5.33636 3.87362 5.03063 3.80311L4.21713 3.57398C3.73824 3.43808 3.4988 3.37014 3.28708 3.45625C3.07536 3.54236 2.95093 3.7583 2.70207 4.19019L2.37301 4.76126C2.13974 5.16609 2.0231 5.3685 2.04574 5.58398C2.06838 5.79946 2.22452 5.97311 2.53681 6.3204L3.22417 7.08887C3.39217 7.30156 3.51144 7.6722 3.51144 8.00543C3.51144 8.33887 3.39221 8.70941 3.22419 8.92212L2.53681 9.69061C2.22452 10.0379 2.06838 10.2115 2.04574 10.427C2.0231 10.6425 2.13974 10.8449 2.37301 11.2498L2.70206 11.8208C2.95092 12.2527 3.07536 12.4687 3.28708 12.5548C3.4988 12.6409 3.73825 12.5729 4.21715 12.437L5.0306 12.2079C5.33639 12.1373 5.65721 12.1774 5.93641 12.3209L6.16097 12.4505C6.40031 12.6038 6.5844 12.8298 6.6863 13.0955L6.90896 13.7605C7.05534 14.2005 7.12854 14.4205 7.30279 14.5464C7.47704 14.6722 7.70849 14.6722 8.17139 14.6722H8.91458C9.37748 14.6722 9.60893 14.6722 9.78319 14.5464C9.95743 14.4205 10.0306 14.2005 10.177 13.7605L10.3997 13.0955C10.5016 12.8298 10.6857 12.6038 10.925 12.4505L11.1496 12.3209C11.4288 12.1774 11.7496 12.1373 12.0554 12.2079L12.8688 12.437C13.3477 12.5729 13.5872 12.6409 13.7989 12.5548C14.0106 12.4687 14.135 12.2527 14.3839 11.8208L14.3839 11.8208L14.713 11.2498C14.9462 10.8449 15.0629 10.6425 15.0402 10.427C15.0176 10.2115 14.8614 10.0379 14.5492 9.69061L13.8618 8.92212C13.6938 8.70941 13.5745 8.33887 13.5745 8.00543C13.5745 7.6722 13.6938 7.30156 13.8618 7.08887L14.5492 6.3204C14.8614 5.97311 15.0176 5.79946 15.0402 5.58398C15.0629 5.3685 14.9462 5.16609 14.713 4.76126Z" stroke="#333333" stroke-linecap="round"/>
<path d="M10.8464 8.00033C10.8464 9.28899 9.80169 10.3337 8.51302 10.3337C7.22436 10.3337 6.17969 9.28899 6.17969 8.00033C6.17969 6.71166 7.22436 5.66699 8.51302 5.66699C9.80169 5.66699 10.8464 6.71166 10.8464 8.00033Z" stroke="#333333"/>
</svg>
