<svg xmlns="http://www.w3.org/2000/svg" width="16" height="17" fill="none" viewBox="0 0 16 17"><path stroke="currentColor" stroke-linecap="round" d="m14.213 5.261-.33-.57c-.248-.433-.372-.649-.584-.735-.212-.086-.451-.018-.93.118l-.814.23c-.305.07-.626.03-.905-.114l-.225-.13a1.333 1.333 0 0 1-.525-.645l-.223-.664c-.146-.44-.22-.66-.394-.786-.174-.126-.406-.126-.868-.126H7.67c-.463 0-.694 0-.868.126-.174.126-.248.346-.394.786l-.223.664a1.333 1.333 0 0 1-.525.646l-.225.13c-.279.143-.6.183-.905.112l-.814-.229c-.479-.136-.718-.204-.93-.118-.212.086-.336.302-.585.734l-.329.571c-.233.405-.35.607-.327.823.022.215.179.39.49.736l.688.769c.168.213.287.583.287.916 0 .334-.119.704-.287.917l-.687.769c-.312.347-.469.52-.491.736-.023.216.094.418.327.823l.33.57c.248.433.372.649.584.735.212.086.451.018.93-.118l.814-.23c.305-.07.626-.03.905.114l.225.13c.24.153.423.379.525.644l.223.665c.146.44.22.66.394.786.174.126.405.126.868.126h.744c.462 0 .694 0 .868-.126.174-.125.248-.345.394-.785l.223-.665c.102-.266.286-.492.525-.646l.225-.13c.279-.143.6-.183.905-.112l.814.229c.479.136.718.204.93.118.212-.086.336-.302.585-.734h0l.329-.571c.233-.405.35-.607.327-.823-.022-.216-.179-.39-.49-.736l-.688-.769c-.168-.213-.287-.583-.287-.917 0-.333.119-.703.287-.916l.687-.769c.312-.347.469-.52.491-.736.023-.215-.094-.418-.327-.823Z"/><path stroke="currentColor" d="M10.346 8.5a2.333 2.333 0 1 1-4.666 0 2.333 2.333 0 0 1 4.666 0Z"/></svg>