<svg width="32" height="32" viewBox="0 0 32 32" fill="none" xmlns="http://www.w3.org/2000/svg">
<path d="M3.33203 15.9997C3.33203 10.0286 3.33203 7.04299 5.18702 5.188C7.04201 3.33301 10.0276 3.33301 15.9987 3.33301C21.9698 3.33301 24.9554 3.33301 26.8104 5.188C28.6654 7.04299 28.6654 10.0286 28.6654 15.9997C28.6654 21.9708 28.6654 24.9564 26.8104 26.8114C24.9554 28.6663 21.9698 28.6663 15.9987 28.6663C10.0276 28.6663 7.04201 28.6663 5.18702 26.8114C3.33203 24.9564 3.33203 21.9708 3.33203 15.9997Z" stroke="#333333" stroke-width="1.5"/>
<path d="M18.6654 22.6663L13.8287 16.8326C13.4976 16.4332 13.332 16.2335 13.332 15.9997C13.332 15.7658 13.4976 15.5661 13.8287 15.1667L18.6654 9.33301" stroke="#333333" stroke-width="1.5" stroke-linecap="round" stroke-linejoin="round"/>
</svg>
