<svg xmlns="http://www.w3.org/2000/svg" width="16" height="16" fill="currentColor" viewBox="0 0 16 16">
  <path d="m9.152 2.297 1.174 2.366c.16.329.586.645.946.705l2.127.356c1.36.229 1.68 1.224.7 2.205l-1.654 1.667c-.28.282-.433.826-.346 1.216l.473 2.064c.373 1.633-.487 2.265-1.92 1.411l-1.993-1.19c-.36-.215-.953-.215-1.32 0l-1.993 1.19c-1.426.854-2.293.215-1.92-1.411l.474-2.064c.086-.39-.067-.934-.347-1.216L1.9 7.929c-.973-.981-.66-1.976.7-2.205l2.126-.356c.354-.06.78-.376.94-.705L6.84 2.297c.64-1.284 1.68-1.284 2.313 0Z"/>
</svg>
