<svg width="16" height="16" viewBox="0 0 16 16" fill="none" xmlns="http://www.w3.org/2000/svg">
<path d="M9.15241 2.29677L10.3256 4.66257C10.4856 4.9919 10.9122 5.30779 11.2722 5.36827L13.3986 5.72449C14.7585 5.953 15.0784 6.94771 14.0985 7.92898L12.4454 9.59579C12.1654 9.87808 12.0121 10.4225 12.0987 10.8123L12.572 12.8756C12.9453 14.5089 12.0854 15.1406 10.6522 14.2871L8.65913 13.0974C8.29917 12.8824 7.7059 12.8824 7.33928 13.0974L5.34616 14.2871C3.91965 15.1406 3.05308 14.5021 3.42637 12.8756L3.89966 10.8123C3.98631 10.4225 3.833 9.87808 3.55303 9.59579L1.89988 7.92898C0.926651 6.94771 1.23995 5.953 2.5998 5.72449L4.72623 5.36827C5.07953 5.30779 5.50615 4.9919 5.66613 4.66257L6.83933 2.29677C7.47926 1.01306 8.51915 1.01306 9.15241 2.29677Z" fill="#FFC658"/>
</svg>
