<svg xmlns="http://www.w3.org/2000/svg" fill="none" viewBox="0 0 16 16"><path stroke="currentColor" stroke-linecap="round" d="m13 3.666-.413 6.683c-.106 1.708-.159 2.562-.586 3.176-.212.303-.485.56-.8.752-.64.389-1.495.389-3.206.389-1.713 0-2.57 0-3.209-.39a2.667 2.667 0 0 1-.8-.753c-.428-.615-.48-1.47-.583-3.18L3 3.666m3 4.157h4m-3 2.612h2M2 3.666h12m-3.296 0-.455-.939c-.303-.623-.454-.935-.715-1.13a1.333 1.333 0 0 0-.183-.114c-.289-.15-.635-.15-1.328-.15-.71 0-1.066 0-1.36.156a1.333 1.333 0 0 0-.185.12c-.264.202-.411.525-.706 1.172l-.404.885"/></svg>