<svg width="16" height="17" viewBox="0 0 16 17" fill="none" xmlns="http://www.w3.org/2000/svg">
<path d="M13.8494 12.5C14.3489 12.5 14.7462 12.1856 15.103 11.7461C15.8333 10.8463 14.6342 10.1272 14.1769 9.77507C13.712 9.41708 13.1929 9.21428 12.6667 9.16667M12 7.83333C12.9205 7.83333 13.6667 7.08714 13.6667 6.16667C13.6667 5.24619 12.9205 4.5 12 4.5" stroke="#333333" stroke-linecap="round"/>
<path d="M2.15194 12.5C1.65241 12.5 1.25508 12.1856 0.898333 11.7461C0.168028 10.8463 1.36708 10.1272 1.8244 9.77507C2.28929 9.41708 2.80836 9.21428 3.33464 9.16667M3.66797 7.83333C2.74749 7.83333 2.0013 7.08714 2.0013 6.16667C2.0013 5.24619 2.74749 4.5 3.66797 4.5" stroke="#333333" stroke-linecap="round"/>
<path d="M5.3905 10.5748C4.70932 10.996 2.92329 11.856 4.0111 12.9323C4.54249 13.458 5.13432 13.834 5.87839 13.834H10.1242C10.8683 13.834 11.4601 13.458 11.9915 12.9323C13.0793 11.856 11.2933 10.996 10.6121 10.5748C9.01473 9.58705 6.98787 9.58705 5.3905 10.5748Z" stroke="#333333" stroke-linecap="round" stroke-linejoin="round"/>
<path d="M10.3346 5.50033C10.3346 6.78899 9.28997 7.83366 8.0013 7.83366C6.71264 7.83366 5.66797 6.78899 5.66797 5.50033C5.66797 4.21166 6.71264 3.16699 8.0013 3.16699C9.28997 3.16699 10.3346 4.21166 10.3346 5.50033Z" stroke="#333333"/>
</svg>
