<svg xmlns="http://www.w3.org/2000/svg" width="16" height="16" fill="none" viewBox="0 0 16 16"><path stroke="currentColor" d="M2 8.333c0-2.985 0-4.478.928-5.405C3.855 2 5.348 2 8.332 2c2.986 0 4.479 0 5.406.928.928.927.928 2.42.928 5.405 0 2.986 0 4.479-.928 5.406-.927.928-2.42.928-5.406.928-2.985 0-4.478 0-5.405-.928C2 12.812 2 11.32 2 8.333Z"/><path stroke="currentColor" stroke-linecap="round" d="M5.332 11.667c1.554-1.628 4.429-1.705 6 0m-1.337-5c0 .92-.747 1.666-1.669 1.666a1.668 1.668 0 1 1 1.67-1.666Z"/></svg>