<svg xmlns="http://www.w3.org/2000/svg" width="16" height="16" fill="none" viewBox="0 0 16 16"><path stroke="currentColor" stroke-linecap="round" stroke-linejoin="round" d="M3.452 10.198c-.838.492-3.036 1.495-1.698 2.75.654.614 1.383 1.053 2.299 1.053h5.225c.916 0 1.644-.439 2.298-1.052 1.34-1.256-.859-2.26-1.697-2.75a6.406 6.406 0 0 0-6.427 0Z"/><path stroke="currentColor" d="M9.333 4.667a2.667 2.667 0 1 1-5.333 0 2.667 2.667 0 0 1 5.333 0Z"/><path stroke="currentColor" stroke-linecap="round" stroke-linejoin="round" d="M12.664 2c-.633 0-1.044.404-1.53.551-.197.06-.296.09-.336.132-.04.042-.051.104-.075.227-.25 1.32.297 2.539 1.602 3.013.14.051.21.077.34.077.128 0 .198-.026.339-.077 1.305-.474 1.851-1.694 1.6-3.013-.022-.123-.034-.185-.074-.227-.04-.042-.139-.072-.336-.132-.486-.147-.897-.551-1.53-.551Z"/></svg>