<svg width="16" height="16" viewBox="0 0 16 16" fill="none" xmlns="http://www.w3.org/2000/svg">
<path d="M3.45208 10.1982C2.61369 10.6897 0.415507 11.6931 1.75435 12.9486C2.40836 13.562 3.13677 14.0007 4.05255 14.0007H9.27818C10.194 14.0007 10.9224 13.562 11.5764 12.9486C12.9152 11.6931 10.717 10.6896 9.87865 10.1982C7.91266 9.0459 5.41807 9.0459 3.45208 10.1982Z" stroke="#141B34" stroke-linecap="round" stroke-linejoin="round"/>
<path d="M9.33333 4.66667C9.33333 6.13943 8.13943 7.33333 6.66667 7.33333C5.19391 7.33333 4 6.13943 4 4.66667C4 3.19391 5.19391 2 6.66667 2C8.13943 2 9.33333 3.19391 9.33333 4.66667Z" stroke="#141B34"/>
<path d="M12.6637 2C12.0305 2 11.6199 2.4038 11.1343 2.55098C10.9369 2.61083 10.8382 2.64075 10.7982 2.68293C10.7583 2.72511 10.7466 2.78675 10.7232 2.91003C10.4728 4.2292 11.02 5.44879 12.3252 5.9235C12.4654 5.9745 12.5355 6 12.6644 6C12.7932 6 12.8633 5.9745 13.0036 5.92349C14.3086 5.44879 14.8553 4.22919 14.6049 2.91003C14.5815 2.78673 14.5698 2.72508 14.5298 2.6829C14.4899 2.64072 14.3912 2.61081 14.1937 2.551C13.708 2.40383 13.2969 2 12.6637 2Z" stroke="#141B34" stroke-linecap="round" stroke-linejoin="round"/>
</svg>
