<svg width="16" height="16" viewBox="0 0 16 16" fill="none" xmlns="http://www.w3.org/2000/svg">
<path d="M4.78801 10.1982C3.94963 10.6897 1.75144 11.6931 3.09029 12.9486C3.7443 13.562 4.4727 14.0007 5.38848 14.0007H10.6141C11.5299 14.0007 12.2583 13.562 12.9123 12.9486C14.2512 11.6931 12.053 10.6896 11.2146 10.1982C9.2486 9.0459 6.75401 9.0459 4.78801 10.1982Z" stroke="#1268B5" stroke-linecap="round" stroke-linejoin="round"/>
<path d="M10.6693 4.66667C10.6693 6.13943 9.47536 7.33333 8.0026 7.33333C6.52984 7.33333 5.33594 6.13943 5.33594 4.66667C5.33594 3.19391 6.52984 2 8.0026 2C9.47536 2 10.6693 3.19391 10.6693 4.66667Z" stroke="#1268B5"/>
</svg>
