<svg width="16" height="16" viewBox="0 0 16 16" fill="none" xmlns="http://www.w3.org/2000/svg">
<path d="M2 8.33333C2 5.34777 2 3.85499 2.9275 2.9275C3.85499 2 5.34777 2 8.33333 2C11.3189 2 12.8117 2 13.7392 2.9275C14.6667 3.85499 14.6667 5.34777 14.6667 8.33333C14.6667 11.3189 14.6667 12.8117 13.7392 13.7392C12.8117 14.6667 11.3189 14.6667 8.33333 14.6667C5.34777 14.6667 3.85499 14.6667 2.9275 13.7392C2 12.8117 2 11.3189 2 8.33333Z" stroke="#333333"/>
<path d="M5.33203 11.6667C6.8865 10.0386 9.76085 9.96189 11.332 11.6667M9.99543 6.66667C9.99543 7.58714 9.24817 8.33333 8.32639 8.33333C7.4046 8.33333 6.65734 7.58714 6.65734 6.66667C6.65734 5.74619 7.4046 5 8.32639 5C9.24817 5 9.99543 5.74619 9.99543 6.66667Z" stroke="#333333" stroke-linecap="round"/>
</svg>
