<svg xmlns="http://www.w3.org/2000/svg" width="16" height="16" fill="none" viewBox="0 0 16 16"><path stroke="currentColor" stroke-linecap="round" stroke-linejoin="round" d="M6.09 1.666c-1.777.04-2.815.21-3.524.917-.621.618-.829 1.488-.898 2.883m8.244-3.8c1.777.04 2.815.21 3.525.917.62.618.828 1.488.898 2.883m-4.423 8.867c1.777-.04 2.815-.21 3.525-.917.62-.619.828-1.488.898-2.883m-8.244 3.8c-1.778-.04-2.816-.21-3.525-.917-.621-.619-.829-1.488-.898-2.883"/><path stroke="currentColor" stroke-linecap="round" d="M5 11.333c1.554-1.628 4.429-1.705 6 0m-1.337-5c0 .92-.747 1.666-1.669 1.666a1.668 1.668 0 1 1 1.67-1.666Z"/></svg>