<svg xmlns="http://www.w3.org/2000/svg" width="16" height="16" fill="none" viewBox="0 0 16 16"><path stroke="currentColor" stroke-linecap="round" d="M13.85 12c.499 0 .896-.314 1.253-.754.73-.9-.469-1.619-.926-1.97a2.9 2.9 0 0 0-1.51-.61M12 7.334A1.667 1.667 0 1 0 12 4m-9.848 8c-.5 0-.897-.314-1.254-.754-.73-.9.47-1.619.926-1.97a2.9 2.9 0 0 1 1.51-.61m.334-1.333a1.667 1.667 0 1 1 0-3.333"/><path stroke="currentColor" stroke-linecap="round" stroke-linejoin="round" d="M5.39 10.073c-.68.421-2.467 1.281-1.379 2.357.531.526 1.123.902 1.867.902h4.246c.744 0 1.336-.376 1.867-.902 1.088-1.076-.698-1.936-1.379-2.357a4.971 4.971 0 0 0-5.221 0Z"/><path stroke="currentColor" d="M10.335 5a2.333 2.333 0 1 1-4.667 0 2.333 2.333 0 0 1 4.667 0Z"/></svg>