<svg width="16" height="17" viewBox="0 0 16 17" fill="none" xmlns="http://www.w3.org/2000/svg">
<path d="M8.33203 15.1663H4.39261C3.36236 15.1663 2.5429 14.665 1.80714 13.9641C0.300941 12.5291 2.7739 11.3823 3.71708 10.8207C5.11761 9.9868 6.75659 9.68093 8.33203 9.90313C8.9037 9.98376 9.46045 10.1339 9.9987 10.3536" stroke="#333333" stroke-linecap="round" stroke-linejoin="round"/>
<path d="M11 4.83301C11 6.48986 9.65685 7.83301 8 7.83301C6.34315 7.83301 5 6.48986 5 4.83301C5 3.17615 6.34315 1.83301 8 1.83301C9.65685 1.83301 11 3.17615 11 4.83301Z" stroke="#333333"/>
<path d="M12.3333 15.1667L12.3333 10.5M10 12.8333H14.6667" stroke="#333333" stroke-linecap="round"/>
</svg>
