<svg width="16" height="16" viewBox="0 0 16 16" fill="none" xmlns="http://www.w3.org/2000/svg">
<path d="M3.45208 10.1973C2.61369 10.6887 0.415507 11.6921 1.75435 12.9477C2.40836 13.561 3.13677 13.9997 4.05255 13.9997H9.27818C10.194 13.9997 10.9224 13.561 11.5764 12.9477C12.9152 11.6921 10.717 10.6887 9.87865 10.1973C7.91266 9.04492 5.41807 9.04492 3.45208 10.1973Z" stroke="white" stroke-linecap="round" stroke-linejoin="round"/>
<path d="M9.33333 4.66667C9.33333 6.13943 8.13943 7.33333 6.66667 7.33333C5.19391 7.33333 4 6.13943 4 4.66667C4 3.19391 5.19391 2 6.66667 2C8.13943 2 9.33333 3.19391 9.33333 4.66667Z" stroke="white"/>
<path d="M12.9987 2.66699V6.00033M14.6654 4.33366L11.332 4.33366" stroke="white" stroke-linecap="round" stroke-linejoin="round"/>
</svg>
