<svg width="16" height="16" viewBox="0 0 16 16" fill="none" xmlns="http://www.w3.org/2000/svg">
<path d="M6.09085 1.66602C4.31333 1.70652 3.2751 1.87572 2.56573 2.58263C1.94488 3.20133 1.73734 4.07106 1.66797 5.46602M9.91175 1.66602C11.6893 1.70652 12.7275 1.87572 13.4369 2.58263C14.0577 3.20133 14.2653 4.07106 14.3346 5.46602M9.91175 14.3327C11.6893 14.2922 12.7275 14.123 13.4369 13.4161C14.0577 12.7974 14.2653 11.9276 14.3346 10.5327M6.09085 14.3327C4.31333 14.2922 3.2751 14.123 2.56573 13.4161C1.94488 12.7974 1.73734 11.9276 1.66797 10.5327" stroke="#333333" stroke-linecap="round" stroke-linejoin="round"/>
<path d="M5 11.3327C6.55447 9.70457 9.42882 9.62791 11 11.3327M9.6634 6.33268C9.6634 7.25316 8.91614 7.99935 7.99435 7.99935C7.07257 7.99935 6.32531 7.25316 6.32531 6.33268C6.32531 5.41221 7.07257 4.66602 7.99435 4.66602C8.91614 4.66602 9.6634 5.41221 9.6634 6.33268Z" stroke="#333333" stroke-linecap="round"/>
</svg>
