<svg width="16" height="16" viewBox="0 0 16 16" fill="none" xmlns="http://www.w3.org/2000/svg">
<path d="M1.33398 7.33268C1.33398 5.13279 1.33398 4.03285 2.0174 3.34943C2.70082 2.66602 3.80076 2.66602 6.00065 2.66602H6.66732C8.86721 2.66602 9.96715 2.66602 10.6506 3.34943C11.334 4.03285 11.334 5.13279 11.334 7.33268V8.66602C11.334 10.8659 11.334 11.9658 10.6506 12.6493C9.96715 13.3327 8.86721 13.3327 6.66732 13.3327H6.00065C3.80076 13.3327 2.70082 13.3327 2.0174 12.6493C1.33398 11.9658 1.33398 10.8659 1.33398 8.66602V7.33268Z" stroke="#333333"/>
<path d="M11.334 5.93789L11.4179 5.86863C12.8284 4.7048 13.5337 4.12289 14.1005 4.40387C14.6673 4.68484 14.6673 5.61635 14.6673 7.47937V8.52193C14.6673 10.385 14.6673 11.3165 14.1005 11.5974C13.5337 11.8784 12.8284 11.2965 11.4179 10.1327L11.334 10.0634" stroke="#333333" stroke-linecap="round"/>
<circle cx="7.66602" cy="6.33398" r="1" stroke="#333333"/>
</svg>
