<svg width="16" height="16" viewBox="0 0 16 16" fill="none" xmlns="http://www.w3.org/2000/svg">
<path d="M7.33398 5.33203L8.66732 5.33203" stroke="white" stroke-linecap="round"/>
<path d="M1.33398 7.33268C1.33398 5.13279 1.33398 4.03285 2.0174 3.34943C2.70082 2.66602 3.80076 2.66602 6.00065 2.66602H6.66732C8.86721 2.66602 9.96715 2.66602 10.6506 3.34943C11.334 4.03285 11.334 5.13279 11.334 7.33268V8.66602C11.334 10.8659 11.334 11.9658 10.6506 12.6493C9.96715 13.3327 8.86721 13.3327 6.66732 13.3327H6.00065C3.80076 13.3327 2.70082 13.3327 2.0174 12.6493C1.33398 11.9658 1.33398 10.8659 1.33398 8.66602V7.33268Z" stroke="white"/>
<path d="M11.334 5.93593L11.4179 5.86667C12.8284 4.70285 13.5337 4.12094 14.1005 4.40191C14.6673 4.68289 14.6673 5.6144 14.6673 7.47742V8.51998C14.6673 10.383 14.6673 11.3145 14.1005 11.5955C13.5337 11.8765 12.8284 11.2945 11.4179 10.1307L11.334 10.0615" stroke="white" stroke-linecap="round"/>
</svg>
